<svg width="268" height="58" viewBox="0 0 268 58" fill="none" xmlns="http://www.w3.org/2000/svg">
    <g filter="url(#filter0_f_247_2076)">
        <path
            d="M8.57955 13.2102V12.2727H15.125V13.2102H12.3807V21H11.3239V13.2102H8.57955ZM17.114 12.2727L19.7049 19.6193H19.8072L22.3981 12.2727H23.506L20.3015 21H19.2106L16.006 12.2727H17.114ZM24.8654 21V12.2727H25.9222V20.0625H29.979V21H24.8654Z"
            fill="black" />
        <path
            d="M12.8523 45.4545V30.9091H13.7841V45.4545H12.8523ZM15.3239 35.7102C15.2784 35.2519 15.0833 34.8958 14.7386 34.642C14.3939 34.3883 13.9261 34.2614 13.3352 34.2614C12.9337 34.2614 12.5947 34.3182 12.3182 34.4318C12.0417 34.5417 11.8295 34.6951 11.6818 34.892C11.5379 35.089 11.4659 35.3125 11.4659 35.5625C11.4583 35.7708 11.5019 35.9527 11.5966 36.108C11.6951 36.2633 11.8295 36.3977 12 36.5114C12.1705 36.6212 12.3674 36.7178 12.5909 36.8011C12.8144 36.8807 13.053 36.9489 13.3068 37.0057L14.3523 37.2557C14.8598 37.3693 15.3258 37.5208 15.75 37.7102C16.1742 37.8996 16.5417 38.1326 16.8523 38.4091C17.1629 38.6856 17.4034 39.0114 17.5739 39.3864C17.7481 39.7614 17.8371 40.1913 17.8409 40.6761C17.8371 41.3883 17.6553 42.0057 17.2955 42.5284C16.9394 43.0473 16.4242 43.4508 15.75 43.7386C15.0795 44.0227 14.2708 44.1648 13.3239 44.1648C12.3845 44.1648 11.5663 44.0208 10.8693 43.733C10.1761 43.4451 9.63447 43.0189 9.24432 42.4545C8.85795 41.8864 8.6553 41.1837 8.63636 40.3466H11.017C11.0436 40.7367 11.1553 41.0625 11.3523 41.3239C11.553 41.5814 11.8201 41.7765 12.1534 41.9091C12.4905 42.0379 12.8712 42.1023 13.2955 42.1023C13.7121 42.1023 14.0739 42.0417 14.3807 41.9205C14.6913 41.7992 14.9318 41.6307 15.1023 41.4148C15.2727 41.1989 15.358 40.9508 15.358 40.6705C15.358 40.4091 15.2803 40.1894 15.125 40.0114C14.9735 39.8333 14.75 39.6818 14.4545 39.5568C14.1629 39.4318 13.8049 39.3182 13.3807 39.2159L12.1136 38.8977C11.1326 38.6591 10.358 38.286 9.78977 37.7784C9.22159 37.2708 8.93939 36.5871 8.94318 35.7273C8.93939 35.0227 9.12689 34.4072 9.50568 33.8807C9.88826 33.3542 10.4129 32.9432 11.0795 32.6477C11.7462 32.3523 12.5038 32.2045 13.3523 32.2045C14.2159 32.2045 14.9697 32.3523 15.6136 32.6477C16.2614 32.9432 16.7652 33.3542 17.125 33.8807C17.4848 34.4072 17.6705 35.017 17.6818 35.7102H15.3239ZM24.4901 32.3636V44H22.0298V34.6989H21.9616L19.2969 36.3693V34.1875L22.1776 32.3636H24.4901ZM27.0795 41.9545V40.017L31.9375 32.3636H33.608V35.0455H32.6193L29.5568 39.892V39.983H36.4602V41.9545H27.0795ZM32.6648 44V41.3636L32.7102 40.5057V32.3636H35.017V44H32.6648ZM42.3494 44.1591C41.5464 44.1591 40.8305 44.0114 40.2017 43.7159C39.5767 43.4205 39.0805 43.0133 38.7131 42.4943C38.3456 41.9754 38.1544 41.3807 38.1392 40.7102H40.5256C40.5521 41.161 40.7415 41.5265 41.0938 41.8068C41.446 42.0871 41.8646 42.2273 42.3494 42.2273C42.7358 42.2273 43.0767 42.142 43.3722 41.9716C43.6714 41.7973 43.9044 41.5568 44.071 41.25C44.2415 40.9394 44.3267 40.5833 44.3267 40.1818C44.3267 39.7727 44.2396 39.4129 44.0653 39.1023C43.8949 38.7917 43.6581 38.5492 43.3551 38.375C43.0521 38.2008 42.7055 38.1117 42.3153 38.108C41.9744 38.108 41.643 38.178 41.321 38.3182C41.0028 38.4583 40.7547 38.6496 40.5767 38.892L38.3892 38.5L38.9403 32.3636H46.054V34.375H40.9688L40.6676 37.2898H40.7358C40.9403 37.0019 41.2491 36.7633 41.6619 36.5739C42.0748 36.3845 42.5369 36.2898 43.0483 36.2898C43.7491 36.2898 44.3741 36.4545 44.9233 36.7841C45.4725 37.1136 45.9062 37.5663 46.2244 38.142C46.5426 38.714 46.6998 39.3731 46.696 40.1193C46.6998 40.9034 46.518 41.6004 46.1506 42.2102C45.7869 42.8163 45.2775 43.2936 44.6222 43.642C43.9706 43.9867 43.2131 44.1591 42.3494 44.1591ZM49.4744 44.1477C49.0994 44.1477 48.7775 44.0152 48.5085 43.75C48.2434 43.4811 48.1108 43.1591 48.1108 42.7841C48.1108 42.4129 48.2434 42.0947 48.5085 41.8295C48.7775 41.5644 49.0994 41.4318 49.4744 41.4318C49.8381 41.4318 50.1563 41.5644 50.429 41.8295C50.7017 42.0947 50.8381 42.4129 50.8381 42.7841C50.8381 43.0341 50.7737 43.2633 50.6449 43.4716C50.5199 43.6761 50.3551 43.8409 50.1506 43.9659C49.946 44.0871 49.7206 44.1477 49.4744 44.1477ZM52.8253 44L57.6491 34.4545V34.375H52.0298V32.3636H60.1946V34.4034L55.3651 44H52.8253ZM65.9872 44.1591C65.1122 44.1591 64.3338 44.017 63.652 43.733C62.974 43.4451 62.4418 43.053 62.0554 42.5568C61.669 42.0606 61.4759 41.4981 61.4759 40.8693C61.4759 40.3845 61.5857 39.9394 61.8054 39.5341C62.0289 39.125 62.3319 38.786 62.7145 38.517C63.0971 38.2443 63.5251 38.0701 63.9986 37.9943V37.9148C63.3774 37.7898 62.8736 37.4886 62.4872 37.0114C62.1009 36.5303 61.9077 35.9716 61.9077 35.3352C61.9077 34.733 62.0838 34.197 62.4361 33.7273C62.7884 33.2538 63.2713 32.8826 63.8849 32.6136C64.5024 32.3409 65.2031 32.2045 65.9872 32.2045C66.7713 32.2045 67.4702 32.3409 68.0838 32.6136C68.7012 32.8864 69.1861 33.2595 69.5384 33.733C69.8906 34.2027 70.0687 34.7367 70.0724 35.3352C70.0687 35.9754 69.8717 36.5341 69.4815 37.0114C69.0914 37.4886 68.5914 37.7898 67.9815 37.9148V37.9943C68.4474 38.0701 68.8698 38.2443 69.2486 38.517C69.6312 38.786 69.9342 39.125 70.1577 39.5341C70.3849 39.9394 70.5005 40.3845 70.5043 40.8693C70.5005 41.4981 70.3054 42.0606 69.919 42.5568C69.5327 43.053 68.9986 43.4451 68.3168 43.733C67.6387 44.017 66.8622 44.1591 65.9872 44.1591ZM65.9872 42.3523C66.3774 42.3523 66.7183 42.2822 67.0099 42.142C67.3016 41.9981 67.5289 41.8011 67.6918 41.5511C67.8584 41.2973 67.9418 41.0057 67.9418 40.6761C67.9418 40.339 67.8565 40.0417 67.6861 39.7841C67.5156 39.5227 67.2846 39.3182 66.9929 39.1705C66.7012 39.0189 66.366 38.9432 65.9872 38.9432C65.6122 38.9432 65.277 39.0189 64.9815 39.1705C64.6861 39.3182 64.4531 39.5227 64.2827 39.7841C64.116 40.0417 64.0327 40.339 64.0327 40.6761C64.0327 41.0057 64.1141 41.2973 64.277 41.5511C64.4399 41.8011 64.669 41.9981 64.9645 42.142C65.2599 42.2822 65.6009 42.3523 65.9872 42.3523ZM65.9872 37.1534C66.313 37.1534 66.6027 37.0871 66.8565 36.9545C67.1103 36.822 67.3092 36.6383 67.4531 36.4034C67.5971 36.1686 67.669 35.8977 67.669 35.5909C67.669 35.2879 67.5971 35.0227 67.4531 34.7955C67.3092 34.5644 67.1122 34.3845 66.8622 34.2557C66.6122 34.1231 66.3205 34.0568 65.9872 34.0568C65.6577 34.0568 65.366 34.1231 65.1122 34.2557C64.8584 34.3845 64.6596 34.5644 64.5156 34.7955C64.3755 35.0227 64.3054 35.2879 64.3054 35.5909C64.3054 35.8977 64.3774 36.1686 64.5213 36.4034C64.6652 36.6383 64.8641 36.822 65.1179 36.9545C65.3717 37.0871 65.6615 37.1534 65.9872 37.1534ZM72.2926 32.3636H75.3267L78.5312 40.1818H78.6676L81.8722 32.3636H84.9062V44H82.5199V36.4261H82.4233L79.4119 43.9432H77.7869L74.7756 36.3977H74.679V44H72.2926V32.3636Z"
            fill="black" />
        <path
            d="M236.415 21H235.307L238.511 12.2727H239.602L242.807 21H241.699L239.091 13.6534H239.023L236.415 21ZM236.824 17.5909H241.29V18.5284H236.824V17.5909ZM244.166 21V12.2727H247.115C247.8 12.2727 248.359 12.3963 248.794 12.6435C249.232 12.8878 249.555 13.2188 249.766 13.6364C249.976 14.054 250.081 14.5199 250.081 15.0341C250.081 15.5483 249.976 16.0156 249.766 16.4361C249.558 16.8565 249.237 17.1918 248.803 17.4418C248.368 17.6889 247.811 17.8125 247.132 17.8125H245.018V16.875H247.098C247.567 16.875 247.943 16.794 248.227 16.6321C248.511 16.4702 248.717 16.2514 248.845 15.9759C248.976 15.6974 249.041 15.3835 249.041 15.0341C249.041 14.6847 248.976 14.3722 248.845 14.0966C248.717 13.821 248.51 13.6051 248.223 13.4489C247.936 13.2898 247.555 13.2102 247.081 13.2102H245.223V21H244.166ZM251.033 12.2727H252.244L254.664 16.3466H254.766L257.187 12.2727H258.397L255.244 17.4034V21H254.187V17.4034L251.033 12.2727Z"
            fill="black" />
        <path
            d="M235.767 41.9545V40.017L240.625 32.3636H242.295V35.0455H241.307L238.244 39.892V39.983H245.148V41.9545H235.767ZM241.352 44V41.3636L241.398 40.5057V32.3636H243.705V44H241.352ZM253.156 41.8182V41.2045C253.156 40.7386 253.255 40.3106 253.452 39.9205C253.652 39.5265 253.942 39.2121 254.321 38.9773C254.704 38.7386 255.17 38.6193 255.719 38.6193C256.276 38.6193 256.743 38.7367 257.122 38.9716C257.505 39.2064 257.793 39.5208 257.986 39.9148C258.183 40.3049 258.281 40.7348 258.281 41.2045V41.8182C258.281 42.2841 258.183 42.714 257.986 43.108C257.789 43.4981 257.499 43.8106 257.116 44.0455C256.734 44.2841 256.268 44.4034 255.719 44.4034C255.162 44.4034 254.694 44.2841 254.315 44.0455C253.937 43.8106 253.649 43.4981 253.452 43.108C253.255 42.714 253.156 42.2841 253.156 41.8182ZM254.81 41.2045V41.8182C254.81 42.0871 254.874 42.3409 255.003 42.5795C255.135 42.8182 255.374 42.9375 255.719 42.9375C256.063 42.9375 256.298 42.8201 256.423 42.5852C256.552 42.3504 256.616 42.0947 256.616 41.8182V41.2045C256.616 40.928 256.556 40.6705 256.435 40.4318C256.313 40.1932 256.075 40.0739 255.719 40.0739C255.378 40.0739 255.141 40.1932 255.009 40.4318C254.876 40.6705 254.81 40.928 254.81 41.2045ZM247.185 35.1591V34.5455C247.185 34.0758 247.285 33.6458 247.486 33.2557C247.687 32.8617 247.976 32.5473 248.355 32.3125C248.738 32.0777 249.2 31.9602 249.741 31.9602C250.302 31.9602 250.772 32.0777 251.151 32.3125C251.529 32.5473 251.817 32.8617 252.014 33.2557C252.211 33.6458 252.31 34.0758 252.31 34.5455V35.1591C252.31 35.6288 252.209 36.0587 252.009 36.4489C251.812 36.839 251.522 37.1515 251.139 37.3864C250.76 37.6174 250.295 37.733 249.741 37.733C249.188 37.733 248.721 37.6155 248.338 37.3807C247.959 37.142 247.671 36.8295 247.474 36.4432C247.281 36.053 247.185 35.625 247.185 35.1591ZM248.849 34.5455V35.1591C248.849 35.4356 248.914 35.6913 249.043 35.9261C249.175 36.161 249.408 36.2784 249.741 36.2784C250.09 36.2784 250.327 36.161 250.452 35.9261C250.58 35.6913 250.645 35.4356 250.645 35.1591V34.5455C250.645 34.2689 250.584 34.0114 250.463 33.7727C250.342 33.5341 250.101 33.4148 249.741 33.4148C249.404 33.4148 249.171 33.536 249.043 33.7784C248.914 34.0208 248.849 34.2765 248.849 34.5455ZM247.935 44L255.935 32.3636H257.423L249.423 44H247.935Z"
            fill="#17876D" />
    </g>
    <defs>
        <filter id="filter0_f_247_2076" x="0" y="0" width="268" height="58" filterUnits="userSpaceOnUse"
            color-interpolation-filters="sRGB">
            <feFlood flood-opacity="0" result="BackgroundImageFix" />
            <feBlend mode="normal" in="SourceGraphic" in2="BackgroundImageFix" result="shape" />
            <feGaussianBlur stdDeviation="4" result="effect1_foregroundBlur_247_2076" />
        </filter>
    </defs>
</svg>