<svg width="1280" height="832" viewBox="0 0 1280 832" fill="none" xmlns="http://www.w3.org/2000/svg">
    <g clip-path="url(#clip0_800_5310)">
        <rect width="1280" height="832" fill="#F1F7F6" />
        <g opacity="0.3">
            <path
                d="M1332.7 395.1C1325.3 393.8 1320.8 391.8 1317.3 389.1C1319.2 389.8 1325.1 390.4 1326.8 390.4C1314.1 385.4 1309.9 380 1305.6 372.5C1304.9 371.3 1304.3 369.8 1303.6 368.3C1306.5 370 1315.5 374.3 1317.9 374.2C1311.4 370.5 1305.6 363.7 1303.5 359.1C1305.1 361.5 1310.3 363.7 1313 364.8C1315.3 365.7 1317.6 365.7 1320 365.6C1313.9 365.5 1307.4 357.9 1303.8 353.7C1299.7 349 1296.2 343.6 1293.4 338C1298.5 340.6 1303.5 341.4 1310.1 341.1C1304.4 338.9 1291.5 332.6 1285.8 319.2C1285.8 319.2 1285.9 319.2 1285.9 319.3C1288.2 320.9 1290.9 322 1293.7 322.8C1289.3 319.4 1287.1 315 1284.9 311.7C1287.1 315.3 1292.7 315.9 1297.4 316.9C1294.6 315.9 1287.7 312.3 1284.2 308.6C1281.1 305.4 1279.2 301.4 1277.9 297.2C1277.4 295.5 1276.9 293.8 1276.5 292.1L1275.3 288C1276.1 291.9 1275.9 295.8 1276.1 299.8C1276.4 309.5 1266.8 322.1 1264 323.8C1268.8 322.8 1272 319.8 1274.1 316.6C1273.7 318.1 1272.8 321.4 1271.7 324.4C1267.4 334.1 1261.3 347.4 1256.9 349.6C1261.1 350.2 1266.2 345.6 1268.9 342.3C1268.9 342.8 1268.8 343.2 1268.7 343.6C1268.7 343.7 1268.7 343.8 1268.6 343.9C1266.3 347.7 1263.1 350.7 1259.2 353.5C1262.6 352.8 1265.2 351.8 1267.2 350.4C1267 351.2 1266.8 352 1266.6 352.8C1265.7 355.9 1264.5 358.7 1262.9 361.2C1258.9 357.6 1255.8 352.8 1253.1 348.4C1252.1 346.8 1251.2 345.2 1250.3 343.6C1251.6 344.2 1253 344.7 1254.3 345.1C1252.8 343.9 1251 342.3 1250.6 340.6C1252.3 343 1256.6 343.3 1259.7 343.1C1255.7 341.9 1250.5 339.2 1248.1 336.3C1246.1 333.9 1245.6 330.5 1244.4 327.9V328.2C1244.6 330.5 1244.2 332.9 1243.5 335C1242 339.1 1239.1 341.6 1235.2 344.3C1234.9 344.5 1234.5 344.7 1234.2 344.9C1231.9 342 1229.8 338.4 1228.7 334.2C1230.3 335.7 1232.2 336.9 1234.3 337.8C1231.3 334.7 1230.1 331 1228.8 328.2C1230.1 331.2 1234.3 332.4 1237.8 333.6C1235.8 332.5 1230.9 328.9 1228.6 325.7C1226.6 322.9 1225.6 319.6 1225.1 316.2C1224.9 314.8 1224.7 313.5 1224.6 312.1L1224.2 308.8C1224.4 311.9 1223.8 314.9 1223.4 318C1222.5 325.5 1213.6 334.1 1211.3 335.1C1215.1 334.9 1217.9 332.9 1219.9 330.7C1219.4 331.8 1218.3 334.2 1217.1 336.4C1212.7 343.4 1206.4 352.9 1202.8 354.1C1206 355.1 1210.4 352.1 1212.9 349.9C1212.8 350.3 1212.7 350.6 1212.6 350.9C1212.6 351 1212.6 351 1212.5 351.1C1210.3 353.7 1207.4 355.7 1204.1 357.4C1206.8 357.3 1208.9 356.8 1210.6 356C1210.3 356.6 1210.1 357.2 1209.8 357.8C1208.6 360.5 1207 362.8 1205.2 364.8C1202.6 361.2 1200.6 357 1199 353.2C1198.2 351.5 1197.5 349.7 1196.9 348C1198.1 348.8 1199.5 349.5 1200.7 350C1199.3 348.6 1197.8 346.7 1197.6 345C1199 347.6 1203.2 348.5 1206.4 348.7C1202.5 347 1197.7 343.5 1195.6 340.4C1193.9 337.8 1193.8 334.3 1193 331.5V331.8C1192.9 334.1 1192.2 336.5 1191.2 338.5C1189.1 342.4 1185.9 344.6 1181.6 346.7C1181.2 346.9 1180.7 347 1180.3 347.2C1183.2 347.7 1186 347.4 1187.9 345.4C1186.5 347.4 1186.1 348.6 1183.5 350C1185.6 350 1187.3 349.3 1188.6 348.3C1186.9 354.9 1182.2 361.2 1176.4 365.7C1175.7 366.3 1174.8 366.9 1174 367.5C1176.5 367.3 1179.2 366.2 1181.5 364.6C1179.8 368.1 1178.2 371.8 1175.9 374.9C1172.5 372.6 1167.4 368.1 1165.7 361.3C1166.9 362.4 1168.3 363.3 1169.9 364C1167.6 361.6 1166.8 358.9 1165.8 356.8C1166.8 359.1 1169.9 359.9 1172.6 360.9C1171.1 360.1 1167.4 357.4 1165.7 354.9C1164.2 352.8 1163.4 350.3 1163.1 347.8C1162.9 346.8 1162.8 345.7 1162.8 344.7L1162.5 342.2C1162.6 344.5 1162.2 346.8 1161.9 349.1C1161.2 354.7 1154.5 361.2 1152.8 361.9C1155.7 361.7 1157.8 360.3 1159.3 358.6C1158.9 359.4 1158.1 361.3 1157.2 362.9C1153.9 368.1 1149.2 375.3 1146.4 376.2C1148.8 376.9 1152.1 374.7 1154 373C1153.9 373.3 1153.9 373.5 1153.8 373.8C1153.8 373.8 1153.8 373.9 1153.7 373.9C1152.1 375.9 1149.9 377.3 1147.4 378.6C1149.4 378.5 1151 378.1 1152.3 377.5C1152.1 378 1151.9 378.4 1151.7 378.8C1151.1 380.1 1150.4 381.2 1149.7 382.3C1149.5 382.1 1149.2 381.9 1149 381.7C1143.3 376.9 1138.7 370.4 1137.2 363.6C1138.5 364.7 1140.2 365.5 1142.3 365.5C1139.6 364 1139.3 362.7 1137.9 360.7C1139.8 362.8 1142.6 363.3 1145.5 362.8C1145.1 362.5 1144.6 362.5 1144.2 362.2C1140 359.9 1136.7 357.5 1134.8 353.5C1133.9 351.4 1133.2 349 1133.2 346.6V346.3C1132.3 349.1 1132.1 352.6 1130.3 355.3C1128.1 358.4 1123 361.8 1119 363.4C1122.2 363.3 1126.5 362.6 1128 360C1127.7 361.8 1126.1 363.6 1124.6 365C1125.9 364.5 1127.3 363.9 1128.6 363.1C1127.9 364.9 1127.1 366.6 1126.2 368.3C1125.3 370.2 1124.3 372.2 1123.2 374.1C1119.5 371.5 1113.3 366 1111.3 357C1112.6 358.4 1114.2 359.5 1115.9 360.3C1113.5 357.4 1112.5 354.1 1111.4 351.6C1112.4 354.4 1115.9 355.4 1118.8 356.5C1117.1 355.5 1113.1 352.3 1111.3 349.3C1109.7 346.7 1108.8 343.7 1108.4 340.7C1108.2 339.5 1108.1 338.2 1108 337L1107.7 334C1107.8 336.8 1107.4 339.5 1107.1 342.3C1106.4 349.1 1099.1 356.9 1097.2 357.8C1100.3 357.6 1102.6 355.8 1104.2 353.8C1103.8 354.8 1102.9 357 1101.9 359C1098.3 365.3 1093.1 374 1090.2 375.1C1092.8 376 1096.4 373.3 1098.5 371.2C1098.4 371.5 1098.4 371.8 1098.3 372.1C1098.3 372.2 1098.3 372.2 1098.2 372.3C1096.4 374.7 1094.1 376.5 1091.4 378C1093.6 377.9 1095.3 377.4 1096.7 376.7C1096.5 377.2 1096.3 377.8 1096.1 378.3C1095.5 379.7 1094.9 381 1094.1 382.1C1091.2 378.8 1088.9 374.9 1087.8 370.7C1088.8 371.6 1090.2 372.2 1091.7 372.1C1089.6 371 1089.3 369.9 1088.1 368.1C1089.6 369.8 1091.7 370.1 1093.9 369.5C1093.6 369.3 1093.2 369.3 1092.9 369.1C1089.6 367.3 1087 365.5 1085.3 362.1C1084.4 360.3 1083.8 358.2 1083.6 356.2V355.9C1083.1 358.4 1083.2 361.5 1082.1 363.9C1080.7 366.8 1077.2 370 1074.3 371.6C1076.7 371.3 1079.8 370.4 1080.8 368.1C1080.7 369.7 1079.6 371.4 1078.7 372.7C1079.6 372.2 1080.6 371.6 1081.5 370.8C1081.1 372.4 1080.6 374 1080.1 375.5C1079.1 378.5 1078 381.7 1076.6 384.6C1073.2 381.9 1069.2 377.6 1067.6 371.5C1068.9 372.7 1070.4 373.7 1072.1 374.4C1069.7 371.9 1068.7 368.9 1067.7 366.6C1068.7 369.1 1072.1 370 1075 371C1073.4 370.1 1069.4 367.2 1067.6 364.6C1066 362.3 1065.1 359.7 1064.8 356.9C1064.6 355.8 1064.5 354.7 1064.4 353.6L1064.1 350.9C1064.2 353.4 1063.8 355.8 1063.5 358.3C1062.8 364.3 1055.6 371.3 1053.7 372.1C1056.8 371.9 1059 370.4 1060.6 368.6C1060.2 369.5 1059.3 371.5 1058.4 373.2C1054.8 378.8 1049.8 386.5 1046.8 387.5C1049.4 388.3 1052.9 385.9 1055 384.1C1054.9 384.4 1054.9 384.7 1054.8 384.9C1054.8 385 1054.8 385 1054.7 385.1C1053 387.2 1050.7 388.7 1048.1 390.1C1047.6 389.6 1047 388.9 1046.5 388.4C1042.2 383.8 1038.8 377.6 1037.7 371.2C1038.7 372.2 1039.9 373 1041.5 373.1C1039.5 371.7 1039.3 370.5 1038.2 368.5C1039.6 370.5 1041.7 371 1043.9 370.5C1043.6 370.3 1043.2 370.2 1042.9 369.9C1039.7 367.7 1037.3 365.5 1035.8 361.6C1035.1 359.6 1034.6 357.3 1034.6 355V354.7C1033.9 357.4 1033.8 360.7 1032.4 363.2C1030.7 366.2 1027 369.3 1024 370.9C1026.4 370.8 1029.6 370.1 1030.7 367.6C1030.5 369.3 1029.3 371.1 1028.2 372.3C1029.2 371.9 1030.2 371.3 1031.2 370.5C1030.7 372.2 1030.1 373.9 1029.4 375.5C1027.6 380.3 1025.4 385.5 1022.3 389.6C1021.8 388.8 1021.3 388 1020.9 387.4C1018.8 384.1 1017.1 380.4 1015.9 376.7C1018.8 378.8 1021.9 379.7 1026 380.2C1022.7 378.3 1015.2 373.2 1013 364.3C1014.3 365.5 1015.8 366.5 1017.5 367.2C1015.1 364.7 1014.1 361.7 1013.1 359.4C1014.1 361.9 1017.5 362.8 1020.4 363.8C1018.8 362.9 1014.8 360 1013 357.4C1011.4 355.1 1010.5 352.5 1010.2 349.7C1010 348.6 1009.9 347.5 1009.8 346.4L1009.5 343.7C1009.6 346.2 1009.2 348.6 1008.9 351.1C1008.2 357.1 1001.2 363.9 999.2 364.8C995.3 361.8 990.3 356.8 988.2 349C989.6 350.4 991.3 351.4 993.1 352.2C990.4 349.3 989.2 345.8 988 343.2C989.2 346.1 992.9 346.9 995.9 347.9C994.1 347 989.8 343.8 987.7 340.7C985.9 338.1 984.8 334.9 984.2 331.7C983.9 330.4 983.7 329.1 983.6 327.7L983.1 324.5C983.4 327.5 983.1 330.5 982.9 333.5C982.6 340.8 975.4 349.7 973.5 350.8C976.7 350.4 979 348.3 980.5 346C980.1 347.1 979.4 349.5 978.5 351.7C975.1 358.7 970.3 368.4 967.3 369.8C970 370.5 973.6 367.4 975.6 365.1C975.6 365.5 975.5 365.8 975.4 366.1C975.4 366.2 975.4 366.2 975.4 366.3C973.7 369 971.4 371.1 968.6 372.9C970.9 372.6 972.6 372 974 371.1C973.8 371.7 973.6 372.3 973.4 372.9C972.7 375 971.8 376.9 970.7 378.7C967 373.9 964.3 367.5 962.1 361.6C961.4 359.7 960.7 357.8 960.1 355.8C961.2 356.7 962.3 357.4 963.4 357.9C962.2 356.4 960.8 354.3 960.5 352.4C961.8 355.3 965.4 356.1 968.1 356.2C964.7 354.4 960.5 350.8 958.6 347.3C957 344.4 956.9 340.5 956.1 337.4V337.8C956.1 340.4 955.6 343.1 954.8 345.5C953.2 350 950.5 352.6 946.9 355.3C946.6 355.6 946.1 355.7 945.8 356C948.3 356.5 950.6 355.9 952.2 353.6C951.1 355.9 950.8 357.4 948.6 359C950.4 358.9 951.8 358 952.9 356.8C951.9 362.9 949.3 368.8 945.7 373.7C943.9 371.7 942.4 369.4 941.2 366.7C940.9 366.1 940.7 365.5 940.4 364.8C942.1 365.6 944.2 366.1 946.9 366.2C943.5 364.4 940.6 362.4 938.4 359.6C938.4 359.5 938.4 359.5 938.3 359.4C938.2 359.1 938.1 358.7 938 358.3C940.5 360.7 945 363.7 948.2 362.6C944.5 361.4 938.1 351.3 933.5 344C932.3 341.7 931.2 339.1 930.6 337.9C932.6 340.2 935.4 342.2 939.3 342.4C936.9 341.4 927.9 332.4 926.9 324.4C926.5 321.1 925.8 317.9 926 314.6L925.6 318.1C925.5 319.6 925.4 321 925.2 322.5C924.8 326.1 923.8 329.6 921.8 332.7C919.6 336.2 914.7 340.1 912.7 341.3C916.2 339.9 920.4 338.6 921.6 335.4C920.3 338.4 919.2 342.3 916.3 345.7C918.4 344.7 920.3 343.4 921.8 341.8C920 349.6 915.4 355.3 911.3 359C909.4 357.5 907.5 355.6 906.5 353.8C905.2 351.4 905 348.3 904.4 345.8V346.1C904.4 348.2 904 350.4 903.3 352.3C901.9 355.9 899.7 358.1 896.7 360.2C896.4 360.4 896 360.5 895.8 360.7C897.9 361.1 899.9 360.6 901.2 358.7C900.3 360.6 900 361.7 898.1 363.1C899.6 363 900.8 362.3 901.7 361.3C901.4 363.4 900.7 365.6 899.9 367.6C896.1 365.1 891.3 360.8 889.2 354.3C890.6 355.4 892.2 356.3 894 357C891.4 354.6 890.2 351.6 889 349.4C890.2 351.8 893.7 352.5 896.6 353.4C894.9 352.6 890.7 349.9 888.7 347.4C886.9 345.2 885.9 342.5 885.3 339.8C885 338.7 884.9 337.6 884.7 336.5L884.2 333.8C884.5 336.3 884.2 338.8 884 341.3C883.7 347.5 876.8 354.9 874.9 355.9C878 355.5 880.2 353.8 881.7 351.9C881.3 352.8 880.6 354.9 879.7 356.7C876.4 362.6 871.8 370.7 868.9 371.9C871.5 372.5 875 369.9 876.9 367.9C876.9 368.2 876.8 368.5 876.7 368.7C876.7 368.8 876.7 368.8 876.7 368.9C875 371.2 872.8 372.9 870.2 374.5C872.4 374.2 874.1 373.8 875.4 373C875.2 373.5 875 374 874.9 374.5C873.7 377.8 871.8 380.4 869.4 382.6C866.1 378.7 863.5 374.1 861.4 369.7C860.5 368.1 859.7 366.4 859.1 364.6C860.3 365.4 861.7 366 863 366.4C861.6 365.1 860 363.3 859.7 361.6C861.2 364.1 865.4 364.8 868.5 364.9C864.6 363.3 859.7 360.2 857.5 357.1C855.7 354.6 855.5 351.1 854.6 348.4V348.7C854.6 351 854 353.4 853.1 355.4C851.2 359.3 848.1 361.6 844 363.9C843.6 364.1 843.1 364.2 842.7 364.5C845.6 364.9 848.3 364.4 850.1 362.4C848.8 364.4 848.5 365.7 845.9 367.1C848 367 849.6 366.2 850.8 365.2C849.8 370.2 847 375.1 843.3 379.2C842.6 378.1 842.1 376.7 841.8 375.2C842.4 375.9 843.1 376.4 843.9 376.9C842.8 375.5 842.4 374 842 372.8C842.4 374.1 844.1 374.7 845.5 375.3C844.7 374.8 842.9 373.2 842 371.7C841.3 370.5 841 369.1 840.9 367.7C840.9 367.1 840.8 366.6 840.9 366V364.6C840.9 365.9 840.5 367.1 840.3 368.3C839.7 371.3 835.7 374.5 834.8 374.8C836.4 374.8 837.6 374.2 838.4 373.3C838.2 373.7 837.6 374.7 837.1 375.5C836.9 375.8 836.7 376.1 836.5 376.3C834.1 375.3 829.9 369.3 827 364.8C826.2 363.4 825.4 361.8 825.1 361C826.4 362.4 828.3 363.7 830.8 363.8C829.2 363.2 823.3 357.6 822.6 352.6C822.3 350.6 821.9 348.6 822 346.5L821.8 348.7C821.8 349.6 821.7 350.5 821.5 351.4C821.2 353.6 820.6 355.8 819.3 357.7C817.8 359.9 814.6 362.3 813.3 363.1C815.6 362.2 818.4 361.4 819.2 359.4C818.4 361.3 817.6 363.7 815.7 365.8C817.1 365.2 818.3 364.4 819.4 363.4C818.4 367.6 816 370.8 813.6 373C812.8 372.2 812.1 371.2 811.6 370.4C810.4 368.4 809.9 366.1 809.8 363.8C809.7 362.9 809.7 361.9 809.7 361L809.6 358.7C809.5 360.8 809 362.8 808.5 364.8C807.8 368 804.9 371.3 802.5 373.4C799.6 370.4 796.5 366 795.6 360.3C796.8 361.6 798.3 362.8 799.9 363.6C797.7 360.8 797 357.7 796.1 355.4C796.9 358 800.3 359.2 803.1 360.5C801.5 359.5 797.8 356.2 796.1 353.3C794.7 350.8 794.1 348.1 793.9 345.3C793.8 344.2 793.8 343 793.8 341.9L793.7 339.2C793.6 341.7 792.9 344.1 792.4 346.6C791.1 352.7 783.2 359 781.3 359.7C784.4 359.8 786.9 358.4 788.6 356.8C788.1 357.7 787 359.6 785.9 361.3C782.9 365.2 779.1 370.1 776 372.7C773.1 368.9 770.8 364.6 768.8 360.5C767.9 358.7 767 356.9 766.3 355.1C767.6 355.9 769.1 356.6 770.4 357C768.9 355.6 767.2 353.7 766.9 351.9C768.5 354.6 773 355.3 776.3 355.4C772.1 353.7 766.9 350.3 764.6 347.1C762.7 344.4 762.5 340.7 761.5 337.9V338.3C761.5 340.7 760.9 343.3 759.9 345.5C757.9 349.7 754.6 352.1 750.2 354.6C749.8 354.9 749.2 354.9 748.8 355.2C751.9 355.6 754.8 355.1 756.7 352.9C755.3 355.1 755 356.4 752.2 358C754.4 357.9 756.1 357.1 757.5 355.9C756.1 362.7 751.6 369.3 746 374.3C744 371.9 741.6 368.2 740.9 363.1C741.6 364.1 742.6 365 743.6 365.7C742.2 363.6 741.8 361.2 741.3 359.3C741.8 361.3 743.9 362.2 745.6 363.2C744.6 362.4 742.3 359.9 741.3 357.7C740.4 355.8 740 353.7 739.9 351.5C739.8 350.6 739.8 349.8 739.9 348.9L739.8 346.8C739.8 348.8 739.3 350.6 739 352.5C738.2 357.2 733.3 362.1 732.1 362.6C734 362.7 735.5 361.6 736.6 360.3C736.3 361 735.6 362.5 734.9 363.8C732.4 368 728.8 373.6 726.9 374.1C728.5 374.9 730.8 373.3 732.2 372C732.1 372.2 732.1 372.4 732 372.6V372.7C730.8 374.2 729.2 375.3 727.5 376.2C728.9 376.3 729.9 376.1 730.8 375.7C730.6 376.1 730.5 376.4 730.3 376.8C729.9 377.7 729.5 378.4 729 379.2C725.2 375.5 722.5 370.6 720.2 366.1C719.4 364.6 718.7 363.1 718.1 361.6C719.2 362.3 720.4 362.8 721.6 363.2C720.3 362 718.9 360.4 718.6 358.9C720 361.2 723.7 361.8 726.5 361.8C723 360.4 718.6 357.6 716.6 354.9C715 352.6 714.8 349.6 714 347.2V347.5C714 349.5 713.5 351.7 712.6 353.5C710.9 357 708.1 359.1 704.4 361.1C704 361.3 703.6 361.4 703.2 361.6C705.8 362 708.3 361.5 709.9 359.7C708.7 361.5 708.5 362.6 706.1 363.9C708 363.8 709.4 363.1 710.6 362.2C709.4 368.1 705.4 373.8 700.4 378C700 378.3 699.6 378.7 699.1 379C698.8 378.6 698.5 378.3 698.3 378C695.3 374.4 692.9 370.4 691.3 366.3C695.5 368.6 700 369.7 706 370.2C701.2 368.1 690.4 362.4 687.4 352.7C687.4 352.7 687.4 352.7 687.5 352.8C689.4 354.1 691.6 355.2 694 356C690.5 353.2 689.2 350 687.7 347.5C689.1 350.2 694.1 351.2 698.2 352.4C695.8 351.4 690.1 348.2 687.5 345.3C685.2 342.8 684 339.9 683.5 336.9C683.3 335.7 683.1 334.5 683 333.3L682.6 330.4C682.8 333.1 682 335.7 681.5 338.4C680.3 344.9 669.7 352.3 666.9 353.2C671.4 353.1 674.7 351.4 677.1 349.5C676.5 350.5 675.2 352.6 673.7 354.5C669.6 359.2 664.1 365.2 659.8 368.1C658.7 366.4 657.8 364.7 657 363C656.5 362 656 361 655.6 359.9C656.3 360.4 657.2 360.7 657.9 361C657.1 360.2 656.1 359.1 655.9 358.1C656.8 359.6 659.4 360 661.2 360.1C658.8 359.2 655.9 357.2 654.5 355.4C653.4 353.9 653.3 351.8 652.7 350.1V350.3C652.7 351.7 652.3 353.1 651.8 354.4C650.6 356.8 648.8 358.2 646.3 359.6C646.1 359.7 645.8 359.8 645.5 359.9C647.3 360.1 648.9 359.9 650 358.6C649.2 359.8 649 360.6 647.5 361.5C648.8 361.5 649.7 361 650.5 360.3C649.7 364.3 647 368.2 643.6 371C643.2 371.4 642.7 371.8 642.2 372.1C643.7 371.9 645.3 371.2 646.6 370.2C645.8 372 645.1 373.8 644.2 375.5C641.8 372.7 639.6 369 638.8 364.4C639.9 365.7 641.3 366.7 642.8 367.5C640.7 364.9 640.1 362 639.3 359.8C640.1 362.2 643.2 363.3 645.8 364.5C644.3 363.5 640.8 360.5 639.3 357.8C638 355.5 637.4 352.9 637.3 350.3C637.2 349.2 637.2 348.2 637.2 347.1L637.1 344.5C637 346.9 636.4 349.1 635.9 351.5C634.7 357.2 627.3 363.1 625.5 363.7C628.4 363.8 630.7 362.5 632.4 360.9C631.9 361.7 630.9 363.5 629.9 365.1C626.7 369.4 622.2 374.9 619.2 376.9C617.8 374.4 616.9 371.7 616.5 369C617.4 369.9 618.7 370.7 620.4 370.9C618.4 369.5 618.2 368.5 617.3 366.8C618.6 368.6 620.8 369.2 623.2 369C622.9 368.8 622.5 368.7 622.2 368.4C619 366.3 616.6 364.2 615.3 360.9C614.7 359.2 614.4 357.2 614.5 355.3V355C613.6 357.1 613.2 359.9 611.6 361.9C609.6 364.2 605.4 366.5 602.1 367.5C604.6 367.6 608.1 367.4 609.5 365.4C609.1 366.8 607.7 368.1 606.5 369.1C607.6 368.8 608.7 368.4 609.8 367.9C609.1 369.3 608.4 370.6 607.6 371.9C605.4 375.7 602.7 379.7 599.3 382.7C599 382 598.7 381.3 598.4 380.8C596.7 377.3 595.6 373.5 594.8 369.6C597.3 371.9 599.9 373.2 603.6 374C600.8 371.8 594.5 366.1 593.1 357C594.2 358.3 595.5 359.4 596.9 360.3C594.9 357.6 594.3 354.5 593.5 352.2C594.2 354.7 597.2 355.9 599.7 357.2C598.3 356.2 595 352.9 593.5 350.1C592.2 347.7 591.7 345 591.6 342.2C591.5 341.1 591.5 340 591.5 338.9L591.4 336.2C591.3 338.7 590.7 341.1 590.2 343.5C589.1 349.5 582 355.7 580.3 356.4C583.1 356.5 585.2 355.1 586.8 353.5C586.4 354.4 585.4 356.3 584.4 358C583.9 358.8 583.3 359.6 582.7 360.5C579.7 358.8 577.4 357.1 576 354.1C575.3 352.6 574.9 350.8 574.9 349V348.8C574.2 350.8 574.1 353.4 572.7 355.3C571.7 356.6 570.1 358 568.3 359.1C565.9 356.2 563.8 352.4 563 347.8C564.2 349.1 565.7 350.3 567.3 351.1C565.1 348.3 564.4 345.2 563.5 342.8C564.3 345.4 567.7 346.6 570.5 347.9C568.9 346.9 565.2 343.6 563.5 340.7C562.1 338.2 561.5 335.5 561.3 332.7C561.2 331.6 561.2 330.4 561.2 329.3L561.1 326.6C561 329.2 560.3 331.6 559.8 334.1C558.7 339.2 553 344.5 550 346.4C544.9 340.7 541.2 333.7 540.3 326.7C541.6 328.1 543.5 329.1 545.9 329.4C543 327.4 542.8 326 541.5 323.5C543.4 326 546.5 326.9 549.9 326.7C549.5 326.4 548.9 326.2 548.4 325.9C543.8 322.8 540.4 319.9 538.6 315.1C537.7 312.6 537.3 309.8 537.5 307.1V306.7C536.2 309.8 535.6 313.7 533.3 316.5C530.4 319.8 524.4 323.1 519.7 324.5C523.3 324.7 528.3 324.3 530.3 321.5C529.8 323.5 527.8 325.4 526 326.8C527.5 326.4 529.2 325.8 530.7 325.1C529.7 327 528.7 328.9 527.5 330.8C524 336.6 519.9 343 514.4 347.4C516.8 346.6 519.3 345.8 521.6 344.7C520.3 346.9 518.9 349 517.4 350.9C513.9 347.9 509.3 342.8 508.1 335.5C509.3 336.8 510.8 338 512.4 338.8C510.2 336 509.5 332.9 508.6 330.5C509.4 333.1 512.8 334.3 515.6 335.6C514 334.6 510.3 331.3 508.6 328.4C507.2 325.9 506.6 323.2 506.4 320.4C506.3 319.3 506.3 318.1 506.3 317L506.2 314.3C506.1 316.9 505.4 319.3 504.9 321.8C503.6 327.9 495.7 334.3 493.7 334.9C496.9 335 499.3 333.6 501.1 331.9C500.6 332.8 499.6 334.7 498.4 336.4C494.3 341.8 488.4 349.2 485.3 349.9C487.8 350.9 491.7 348.8 493.9 347.2C493.8 347.5 493.7 347.8 493.6 348C493.6 348.1 493.6 348.1 493.5 348.2C491.5 350.2 489 351.6 486.2 352.8C488.4 352.9 490.2 352.6 491.6 352.1C491.3 352.6 491.1 353 490.8 353.5C488.4 357.7 485.1 360.5 481 362.7C479.4 363.5 477.9 364.2 476.1 364.8C480 366.3 483 364.4 486.1 362.2C483.8 365 480.5 366.9 477.5 368.8C479.4 369.8 483.3 368.1 485.1 367.2C484.6 369.9 482.3 373.1 480.8 375C477.7 379 473.2 382.1 469.2 385.1C473.9 385.8 478.7 383.3 482.2 380.4C479.8 384.1 476 386.4 472.8 389.2C477.6 390.2 482.1 386.1 484.9 382.8C484.4 385.5 482.4 387.8 481 390C483 389.4 485.3 388.2 487.2 386.7V389.1C486.3 390.2 485.4 391.3 484.5 392.4C485.5 392.3 486.4 391.9 487.2 391.5V634.5H1290.5V402.5C1292 404.7 1293.8 406.6 1295.5 408.1C1295 403.5 1293.9 398.7 1293.6 394.1C1296 398.6 1301.2 402.4 1305.6 404.9C1302.6 401.3 1301.9 397 1300.3 392.8C1302.7 396.9 1310.5 402.9 1316.3 403.8C1311.9 401.1 1306.4 393.5 1304.4 389.2C1309.4 395 1319.6 398.9 1332.7 395.1ZM743.5 384.7C743.6 385.1 743.9 385.5 744.2 385.9C744.1 386 744 386.1 743.9 386.3C743.7 385.7 743.6 385.2 743.5 384.7ZM775.1 375.2C775.7 375.5 776.4 375.8 777 376.1C776.2 376.5 775.4 376.9 774.6 377.3C774.2 376.6 773.9 375.9 773.5 375.2C774 375.3 774.5 375.3 775.1 375.2ZM814.3 379.3C813.5 378.3 812.9 377.2 812.5 376.1C813.1 375.9 813.7 375.7 814.3 375.4C814.9 375.7 815.4 376 816 376.2C815.2 378.4 814.2 380.6 812.9 382.6C811.9 380.8 811.1 378.8 810.7 376.5C811.7 377.6 812.9 378.5 814.3 379.3ZM642.4 398.3C642.2 397.5 642 396.6 641.9 395.7C642.3 396.1 643 396.7 643.9 397.4C643.4 397.7 642.9 398 642.4 398.3ZM643.2 390.4C643.4 391 643.9 391.7 644.6 392.3C644.5 392.3 644.5 392.3 644.4 392.4C644.5 392.4 644.5 392.4 644.6 392.4C644.5 392.7 644.4 393 644.4 393.3C644.7 393.2 645 393 645.2 392.9C645.4 393 645.5 393.2 645.7 393.3C645.4 393.4 645.2 393.6 644.9 393.7C645.4 393.7 645.7 393.7 646.1 393.7C646.4 393.9 646.7 394.1 646.9 394.3C646.5 395 646 395.6 645.5 396.1C644.3 394 643.4 391.9 643.2 390.4ZM648.3 391.2C648.3 391.3 648.3 391.3 648.3 391.4V391.5C647.9 391.9 647.6 392.2 647.1 392.4C647 392.3 646.9 392.1 646.8 392C647.3 391.8 647.8 391.5 648.3 391.2ZM644.3 400.5H644.1C644.2 400.5 644.2 400.5 644.3 400.5ZM644.9 388.4C645 388.6 645 388.8 645 388.9C644.9 388.8 644.8 388.6 644.8 388.5C644.8 388.5 644.8 388.4 644.9 388.4ZM644.7 398.1C644.2 398.8 643.5 399.3 642.9 399.8C642.8 399.6 642.8 399.4 642.7 399.3C643.4 399 644 398.6 644.7 398.1ZM656 391.7C656 391.8 656.1 391.9 656.1 391.9C656.1 391.9 656.1 392 656 392C656.1 392 656.1 391.8 656 391.7ZM620.7 384.2C620.6 383.9 620.5 383.6 620.4 383.2C620.6 383.4 620.8 383.6 621.1 383.7C620.9 383.9 620.8 384.1 620.7 384.2ZM746.4 388.3C746.5 388.4 746.5 388.4 746.6 388.5C746.3 389.1 745.9 389.7 745.5 390.3C745.4 390 745.2 389.8 745.1 389.5C745.6 389.1 746 388.7 746.4 388.3ZM744.7 391.3C744.3 391.8 743.9 392.4 743.4 392.9C743.3 392.4 743.1 391.9 743 391.4C743 391.2 742.9 391 742.9 390.8C743.2 390.7 743.5 390.5 743.7 390.3C744.1 390.6 744.4 390.9 744.7 391.3ZM813.7 392C813.6 391.6 813.4 391.3 813.3 390.9C813.7 390.6 814 390.4 814.2 390.2C814 390.9 813.8 391.5 813.7 392ZM812.4 388C812.3 387.7 812.2 387.4 812.2 387.1C812.4 387.2 812.5 387.4 812.7 387.5C812.6 387.6 812.5 387.8 812.4 388ZM834.4 381.4C834.3 381.4 834.3 381.5 834.4 381.4C834.1 381.7 833.8 382 833.6 382.2C833.5 382.1 833.4 382 833.3 381.8C833.8 381.5 834.2 381.3 834.6 381C834.5 381.2 834.4 381.3 834.4 381.4ZM778.2 378.5C777.8 379.3 777.3 380 776.8 380.7C776.7 380.6 776.7 380.5 776.6 380.4C776 379.6 775.5 378.7 775 377.8C776.6 377.8 777.9 377.5 779 377.1C778.7 377.6 778.4 378.1 778.2 378.5ZM945.6 378C945.7 378.1 945.8 378.2 945.9 378.2V378.3C945.8 378.3 945.7 378.2 945.6 378ZM1047.4 405C1047.3 404.8 1047.1 404.6 1047 404.4C1047.2 404.3 1047.4 404.2 1047.6 404C1047.5 404.4 1047.5 404.7 1047.4 405ZM997.7 381.7L997.8 381.8C997.7 382 997.6 382.2 997.5 382.4C997.4 382.2 997.3 382 997.3 381.9C997.4 381.9 997.6 381.8 997.7 381.7ZM988.2 406.1C988.2 406.2 988.3 406.2 988.3 406.3H988.2C988.2 406.2 988.2 406.2 988.2 406.1ZM869.7 389.6C870.2 389.3 870.7 388.9 871.1 388.7C871.1 389.5 870.9 390.3 870.6 391.2C870.3 390.6 870 390.1 869.7 389.6ZM1118.2 386.6C1118.2 386.7 1118.3 386.7 1118.3 386.8C1118.3 386.7 1118.2 386.7 1118.2 386.6ZM1073.7 404.7C1073.6 404.3 1073.5 403.9 1073.4 403.5C1073.5 403.6 1073.7 403.8 1073.9 403.9C1073.9 404.2 1073.8 404.4 1073.7 404.7ZM1146.7 393.4C1146.8 393.5 1146.8 393.5 1146.9 393.6C1146.9 393.6 1146.9 393.6 1146.9 393.7C1146.8 393.5 1146.7 393.5 1146.7 393.4ZM1157.1 405.6C1157.2 405.4 1157.3 405.3 1157.3 405.1C1157.3 405.3 1157.3 405.4 1157.4 405.6H1157.1ZM1172.2 385.5C1172.3 385.7 1172.4 385.8 1172.5 386L1172.4 386.1C1172.4 385.9 1172.3 385.7 1172.2 385.5ZM1177.7 393.8C1177.7 393.9 1177.7 394 1177.8 394.1C1177.7 394 1177.7 393.9 1177.6 393.9C1177.6 393.9 1177.6 393.9 1177.7 393.8ZM1181.4 398.1C1181.9 397.5 1182.4 396.8 1182.7 396.3C1182.8 396.7 1182.9 397.2 1183 397.7L1181.4 398.1ZM1204.6 369.3C1204.6 369.2 1204.5 369.1 1204.5 369.1C1204.8 368.9 1205 368.7 1205.3 368.5C1205 368.7 1204.8 369 1204.6 369.3ZM1236.3 358.8C1234.7 355.8 1233.4 352.6 1232.3 349.3C1234.6 351 1237 352 1239.8 352.7C1238.9 354.9 1237.7 356.9 1236.3 358.8ZM1203.2 366.5C1203 366.1 1202.9 365.8 1202.7 365.4C1203 365.6 1203.4 365.8 1203.7 366C1203.5 366.2 1203.4 366.3 1203.2 366.5ZM1147 387.9C1146.9 387.8 1146.9 387.7 1146.8 387.6C1147.1 387.3 1147.5 387.1 1147.8 386.8C1147.6 387.2 1147.3 387.5 1147 387.9ZM1119.8 384.4C1119.5 383.9 1119.2 383.3 1118.9 382.9C1118.8 382.7 1118.7 382.5 1118.6 382.3C1119.7 381.8 1120.7 381.3 1121.7 380.7C1121.1 381.9 1120.5 383.2 1119.8 384.4ZM1047.6 399.8C1047.6 399.7 1047.5 399.7 1047.5 399.6C1047.7 399.4 1047.9 399.3 1048.1 399.1C1047.9 399.3 1047.8 399.5 1047.6 399.8ZM1046 401.5C1045.8 401.7 1045.7 401.8 1045.5 402C1045.4 401.8 1045.2 401.5 1045.1 401.3C1045.2 401.2 1045.4 401.1 1045.5 401.1C1045.7 401.2 1045.9 401.4 1046 401.5ZM1020 400C1019.9 399.7 1019.8 399.4 1019.7 399.1C1019.4 398.3 1019.1 397.3 1018.9 396.3C1019.4 396.7 1020.2 397.3 1021.1 397.9C1020.6 398.6 1020.3 399.3 1020 400ZM999.5 377.6C999.5 377.7 999.5 377.7 999.4 377.8C999.2 378.1 998.9 378.3 998.7 378.6C998.6 378.4 998.4 378.2 998.3 378C998.8 377.6 999.3 377.2 999.7 376.8C999.6 377 999.6 377.3 999.5 377.6ZM969 384.6C969 384.5 968.9 384.5 968.9 384.4C969 384.2 969.2 384.1 969.3 383.9C969.2 384.1 969.1 384.3 969 384.6ZM912.9 377.4C912.8 377.7 912.7 378 912.6 378.2C912.5 378.1 912.5 377.9 912.4 377.8C912.5 377.6 912.6 377.5 912.7 377.3C912.9 377.4 912.9 377.4 912.9 377.4ZM907.4 360.7C907.6 360.9 907.9 361.1 908.1 361.2C907.9 361.3 907.8 361.4 907.6 361.5C907.6 361.3 907.5 361 907.4 360.7ZM868.3 387.4C868.1 387.1 867.9 386.8 867.7 386.5C868.6 385.9 869.5 385.2 870.4 384.4C870.5 384.4 870.6 384.5 870.7 384.5C870 385.6 869.2 386.5 868.3 387.4ZM843.8 382.6C843.6 383.1 843.4 383.6 843.1 384.1C842.9 383.6 842.8 383.1 842.6 382.6C842.8 382.5 843 382.4 843.2 382.2C843.4 382.3 843.6 382.5 843.8 382.6ZM832.5 380.7C832.2 380.2 831.9 379.6 831.6 379.1C831.4 378.7 831.3 378.3 831.1 377.9C832 378.3 833 378.6 834.3 378.7C833.7 379.4 833.1 380.1 832.5 380.7ZM816 376C815.7 375.7 815.3 375.4 814.9 375.1C815.5 374.8 816.1 374.4 816.7 374C816.5 374.6 816.3 375.3 816 376ZM747.2 387.5C747.1 387.6 747.1 387.7 747 387.8C747 387.8 747 387.8 746.9 387.7C747.1 387.6 747.1 387.5 747.2 387.5C747.2 387.5 747.2 387.4 747.2 387.5ZM701.9 388.6C701.9 388.7 701.8 388.8 701.7 388.9C701.7 388.9 701.7 388.9 701.6 388.8C701.7 388.8 701.8 388.7 701.9 388.6ZM700.5 390.8C699.8 391.8 699 392.8 698.1 393.8C697.7 393.2 697.4 392.6 697 391.9C698.1 391.5 699 391 699.7 390.5C700.1 390.6 700.3 390.7 700.5 390.8ZM696.3 390.3C696 389.6 695.7 388.8 695.5 388.1C696 388.4 696.7 388.8 697.6 389.3C697.2 389.6 696.8 390 696.3 390.3ZM664.4 373.3C663.8 374.3 663.1 375.2 662.3 376.1C661.9 375.4 661.6 374.8 661.2 374.3C660.9 373.8 660.5 373.3 660.2 372.8C662.2 372.6 663.9 372.3 665.3 371.8C665 372.3 664.7 372.8 664.4 373.3ZM659.8 372.1C659.6 371.6 659.3 371.2 659.1 370.7C659.7 371 660.3 371.3 660.9 371.6C660.5 371.8 660.2 372 659.8 372.1ZM644.1 379.1C643.5 380 642.7 381.1 641.9 382C641.7 381.5 641.6 381 641.4 380.5C642.4 380.1 643.3 379.6 643.9 379C643.9 379 644 379.1 644.1 379.1ZM622.6 381.4C622.4 381.7 622.3 381.9 622.1 382.2C621.7 381.7 621.3 381.2 620.9 380.7C621.8 380.6 622.6 380.4 623.3 380.2C623.1 380.5 622.9 380.9 622.6 381.4ZM597.4 395.8C597.4 395.7 597.4 395.7 597.3 395.6C597.4 395.6 597.4 395.6 597.5 395.5C597.5 395.7 597.4 395.8 597.4 395.8ZM570.9 362.6C570.7 362.4 570.5 362.3 570.3 362.1C570.6 361.9 571 361.7 571.3 361.5C571.2 361.8 571 362.2 570.9 362.6ZM570 364.4C569.8 364.7 569.7 365 569.5 365.4C568.8 366.8 568.1 368.2 567.3 369.6C566.2 367.1 565.4 364.4 564.8 361.7C564.9 361.7 565.1 361.7 565.2 361.7C566.7 362.8 568.2 363.7 570 364.4ZM548.8 354.9C547.8 352.3 547 349.6 546.1 346.9C547.9 348.5 550.1 349.8 552.2 350.6C551.1 352 550 353.5 548.8 354.9ZM513.4 364.6C513.3 364.7 513.3 364.8 513.2 364.9C513.2 364.8 513.2 364.7 513.1 364.6C513.2 364.6 513.3 364.6 513.4 364.6ZM1173.6 396.6C1174.8 395.9 1175.9 395.2 1176.8 394.5C1177.2 394.7 1177.5 394.9 1177.8 395C1177.9 396.3 1177.7 397.3 1177.1 399.3L1175.6 399.8C1174.8 398.8 1174.2 397.7 1173.6 396.6ZM1187 395.6C1187 395.9 1187 396.3 1187 396.6L1186.7 396.7C1186.8 396.3 1186.9 395.9 1187 395.6ZM1262.5 361.8C1262 362.6 1261.5 363.4 1260.9 364.1C1260 362.8 1259.1 361.5 1258.3 360.2C1259.7 360.8 1261.1 361.3 1262.5 361.8ZM1241.2 342.1C1240.1 344.3 1239.9 345.5 1237.4 347.2C1239.4 346.9 1241 346 1242.1 344.8C1241.9 346.8 1241.3 348.9 1240.6 350.9C1238.6 349.4 1236.3 347.4 1234.3 344.9C1237.1 344.9 1239.6 344.2 1241.2 342.1ZM1173.2 382.9C1173.1 382.7 1173 382.6 1172.9 382.4C1172.5 381.8 1172.2 381.2 1171.8 380.6C1174.5 379.9 1176.4 378.4 1177.8 377C1176.7 378.7 1175.1 381 1173.2 382.9ZM1175.2 375.3C1174 376.7 1172.7 378 1171 379.1C1169.9 377 1169 374.8 1168.3 372.5C1170.3 373.9 1172.5 374.8 1175.2 375.3ZM1148.7 382.8C1147.9 383.8 1146.9 384.8 1145.9 385.7C1145 383.9 1144.3 382 1143.4 380.2C1145.1 381.3 1146.9 382.3 1148.7 382.8ZM1122.5 374.4C1121.2 376.7 1119.7 379 1117.9 381C1116.2 377.8 1114.8 374.3 1113.8 370.7C1116.5 372.8 1119.2 373.9 1122.5 374.4ZM1075.1 386.2C1074.5 387.4 1073.8 388.5 1073 389.5C1074.4 388.7 1075.8 387.8 1077.1 386.7H1077.2C1076.6 388.6 1076 390.4 1075.1 392.1C1074.9 392.6 1074.6 393.1 1074.4 393.7C1072.5 390.6 1071 387.2 1069.9 383.7C1071.6 384.9 1073.2 385.7 1075.1 386.2ZM1047.3 390C1047.4 390 1047.5 390 1047.5 390C1047.5 390 1047.5 390 1047.4 389.9C1049.5 389.8 1051.1 389.4 1052.4 388.8C1052.2 389.3 1052 389.8 1051.8 390.2C1050.4 393.2 1048.5 395.6 1046.2 397.7C1044.3 394.5 1043.2 390.6 1041.9 387C1043.5 388.5 1045.5 389.6 1047.3 390ZM1025.7 387.4C1025.1 389 1024.4 390.6 1023.7 392.1C1023.1 391.3 1022.5 390.5 1021.9 389.7C1023.2 389.1 1024.5 388.3 1025.7 387.4ZM1022.9 393.8C1022.6 394.4 1022.3 395 1022 395.6C1020.8 393.8 1020 392 1019.6 390.6C1020.1 391.7 1021.5 392.9 1022.9 393.8ZM1002.1 367.2C1001.2 366.7 999.9 365.9 998.5 364.8C1001.5 364.6 1003.8 363 1005.3 361.3C1004.9 362.2 1004 364.2 1003.1 365.9C1001.2 368.9 998.9 372.5 996.6 375.4C994.4 371.8 992.6 367.9 991.3 363.8C994.5 366 997.8 367 1002.1 367.2ZM967.7 381.9C966.7 380 965.9 377.8 965 375.7C966.5 376.9 968.3 377.9 970 378.8C969.3 379.9 968.6 381 967.7 381.9ZM918.1 358.2C916.7 363.2 914.7 368.1 912.1 372.5C912.1 372.5 912.1 372.5 912.1 372.6C911 370.3 910 367.9 909.1 365.5C908.7 364.6 908.4 363.6 908 362.6C908.6 362.5 909.2 362.4 909.7 362.2C909.8 362.3 910 362.4 910.1 362.4C910 362.3 910 362.2 909.9 362.1C911.1 361.8 912.3 361.4 913.4 360.9C913.6 360.9 913.9 360.9 914.1 360.9C914 360.8 913.9 360.8 913.8 360.7C915.3 360.1 916.7 359.2 918.1 358.2ZM909.8 359.9C909.5 360.2 909.2 360.4 908.9 360.6C908.4 359.7 907.9 358.8 907.8 357.9C908.2 358.8 908.9 359.5 909.8 359.9ZM898.9 369.1C898.1 370.8 897.2 372.4 896.1 373.9C894.7 371.6 893.5 369.1 892.6 366.6C894.6 367.9 896.6 368.7 898.9 369.1ZM871.3 383.6C871.1 383.9 871 384.1 870.8 384.3C870.7 384.2 870.7 384.2 870.6 384.1C870.9 384 871.1 383.8 871.3 383.6ZM866.7 384.7C866.2 383.8 865.7 382.9 865.3 382C866.2 382.6 867.2 383.1 868.2 383.5C867.7 383.9 867.2 384.3 866.7 384.7ZM836 376.7C835.6 377.3 835.1 377.8 834.6 378.4C832.7 377.4 831.1 376.2 829.8 374.7C829.8 374.7 829.8 374.6 829.7 374.6C829.6 374.4 829.5 374.2 829.5 373.9C831.1 375.3 833.9 377.1 836 376.7ZM812.3 374.1C812.1 374.2 812 374.4 811.8 374.5C811.5 373.8 811.3 373.1 811.1 372.4C811.4 373.1 811.8 373.7 812.3 374.1ZM805 373.6C804.8 374 804.4 374.7 803.9 375.6C803.7 375.4 803.5 375.2 803.2 375C803.9 374.5 804.5 374.1 805 373.6ZM800.6 375.9C801.4 376.3 802.2 376.6 803 376.9C802.9 377 802.8 377.1 802.8 377.3C801.8 378.6 800.7 380 799.6 381.4C798.5 378.9 797.7 376.2 797.1 373.5C798 374.3 798.9 374.9 799.9 375.5C799.5 375.7 799.2 375.9 799 376C799.6 376 800.1 376 800.6 375.9ZM781.2 372.3C781.1 372.6 781 372.9 780.9 373.1C780.9 373.2 780.9 373.2 780.8 373.3C779.9 374.2 778.9 375 777.8 375.7C777.5 375.4 777.2 375.1 777 374.8C778.6 374.1 780.1 373.2 781.2 372.3ZM773.3 374.8C773.2 374.5 773 374.3 772.9 374C773.2 374.2 773.5 374.4 773.8 374.5C773.6 374.7 773.5 374.8 773.3 374.8ZM744.5 375.6C743.9 376.1 743.2 376.6 742.7 377.1C743.8 377 744.9 376.7 745.9 376.2C746.5 376.4 747.1 376.6 747.8 376.8C747.5 376.6 747.2 376.2 746.8 375.9C748.1 375.3 749.3 374.6 750.5 373.8C748.9 377.5 747.5 381.3 745.3 384.6C744.9 383.7 744.5 382.9 744.3 382.2C743.2 379.5 742.3 376.5 741.8 373.5C742.5 374.3 743.5 375 744.5 375.6ZM726.4 382.3C725.4 380.8 724.5 379.1 723.6 377.4C725.1 378.3 726.9 379.1 728.5 379.7C727.9 380.7 727.2 381.6 726.4 382.3ZM704.6 377.1C703.8 379 703 381 702 382.9C700.9 381.8 700 380.7 699.1 379.7C701 379.3 702.9 378.3 704.6 377.1ZM700.9 385C700.6 385.6 700.2 386.2 699.8 386.7C698.4 385 697.4 383.2 696.9 381.9C697.5 382.9 699.2 384 700.9 385ZM668.1 366.5C668 366.8 667.9 367.1 667.7 367.4C667.7 367.5 667.6 367.5 667.6 367.6C665.9 369.1 663.9 370.3 661.6 371.4C661.2 371 660.8 370.5 660.5 370C663.3 369.2 666.2 367.8 668.1 366.5ZM641 379.4C640.7 378.5 640.5 377.6 640.3 376.7C640.9 377.2 641.6 377.7 642.3 378.1C641.9 378.6 641.5 379 641 379.4ZM625.5 375.6C625.4 375.9 625.3 376.1 625.2 376.3C625.2 376.3 625.2 376.4 625.1 376.4C623.8 377.8 622.1 378.8 620.4 379.7C620.1 379.2 619.8 378.8 619.5 378.3C621.6 378.1 623.9 376.7 625.5 375.6ZM603.2 382.1C602.4 383.5 601.5 384.8 600.6 386C600.1 385.2 599.7 384.4 599.3 383.6C600.6 383.2 601.9 382.7 603.2 382.1ZM599.4 387.5C599.1 387.9 598.8 388.3 598.5 388.7C597.8 387.2 597.4 385.7 597.2 384.5C597.5 385.5 598.4 386.6 599.4 387.5ZM596.9 391.1C596.7 391.4 596.5 391.6 596.3 391.8C596.2 391.3 596.1 390.7 596 390.2C596.2 390.4 596.5 390.7 596.9 391.1ZM582.2 361.5C581.8 362.1 581.4 362.6 581 363.2C579.3 362.2 579.1 361.3 578.2 359.8C579.2 361 580.6 361.5 582.2 361.5ZM580.8 363.4C580.1 364.3 579.5 365.1 578.8 366C578.2 364.7 577.8 363.4 577.5 362C578.4 362.7 579.5 363.2 580.8 363.4ZM570.9 359.2C570.8 360 570.3 360.7 569.7 361.4C569.5 361.2 569.3 360.9 569 360.7C569.8 360.4 570.5 359.9 570.9 359.2ZM564.8 361.5C564.8 361.4 564.8 361.3 564.7 361.3C564.8 361.4 564.8 361.4 564.9 361.5C564.9 361.4 564.8 361.4 564.8 361.5ZM555.9 344.8C555.4 345.7 554.4 347.6 553.2 349.3C553.1 349.5 552.9 349.7 552.8 349.9C552.5 349.6 552.1 349.2 551.8 348.9C551.4 348.5 551 348 550.6 347.6C552.8 347.2 554.5 346.1 555.9 344.8ZM516.5 352.6C515.4 354.1 514.1 356 512.8 357.8C511.6 355 510.6 352 509.9 349C511.8 350.7 513.9 351.8 516.5 352.6Z"
                fill="#E6F1EF" fill-opacity="0.5" />
            <path
                d="M836.5 395.1C829.1 393.8 824.6 391.8 821.1 389.1C823 389.8 828.9 390.4 830.6 390.4C817.9 385.4 813.7 380 809.4 372.5C808.7 371.3 808.1 369.8 807.4 368.3C810.3 370 819.3 374.3 821.7 374.2C815.2 370.5 809.4 363.7 807.3 359.1C808.9 361.5 814.1 363.7 816.8 364.8C819.1 365.7 821.4 365.7 823.8 365.6C817.7 365.5 811.2 357.9 807.6 353.7C803.5 349 800 343.6 797.2 338C802.3 340.6 807.3 341.4 813.9 341.1C808.2 338.9 795.3 332.6 789.6 319.2C789.6 319.2 789.7 319.2 789.7 319.3C792 320.9 794.7 322 797.5 322.8C793.1 319.4 790.9 315 788.7 311.7C790.9 315.3 796.5 315.9 801.2 316.9C798.4 315.9 791.5 312.3 788 308.6C784.9 305.4 783 301.4 781.7 297.2C781.2 295.5 780.7 293.8 780.3 292.1L779.1 288C779.9 291.9 779.7 295.8 779.9 299.8C780.2 309.5 770.6 322.1 767.8 323.8C772.6 322.8 775.8 319.8 777.9 316.6C777.5 318.1 776.6 321.4 775.5 324.4C771.2 334.1 765.1 347.4 760.7 349.6C764.9 350.2 770 345.6 772.7 342.3C772.7 342.8 772.6 343.2 772.5 343.6C772.5 343.7 772.5 343.8 772.4 343.9C770.1 347.7 766.9 350.7 763 353.5C766.4 352.8 769 351.8 771 350.4C770.8 351.2 770.6 352 770.4 352.8C769.5 355.9 768.3 358.7 766.7 361.2C762.7 357.6 759.6 352.8 756.9 348.4C755.9 346.8 755 345.2 754.1 343.6C755.4 344.2 756.8 344.7 758.1 345.1C756.6 343.9 754.8 342.3 754.4 340.6C756.1 343 760.4 343.3 763.5 343.1C759.5 341.9 754.3 339.2 751.9 336.3C749.9 333.9 749.4 330.5 748.2 327.9V328.2C748.4 330.5 748 332.9 747.3 335C745.8 339.1 742.9 341.6 739 344.3C738.7 344.5 738.3 344.7 738 344.9C735.7 342 733.6 338.4 732.5 334.2C734.1 335.7 736 336.9 738.1 337.8C735.1 334.7 733.9 331 732.6 328.2C733.9 331.2 738.1 332.4 741.6 333.6C739.6 332.5 734.7 328.9 732.4 325.7C730.4 322.9 729.4 319.6 728.9 316.2C728.7 314.8 728.5 313.5 728.4 312.1L728 308.8C728.2 311.9 727.6 314.9 727.2 318C726.3 325.5 717.4 334.1 715.1 335.1C718.9 334.9 721.7 332.9 723.7 330.7C723.2 331.8 722.1 334.2 720.9 336.4C716.5 343.4 710.2 352.9 706.6 354.1C709.8 355.1 714.2 352.1 716.7 349.9C716.6 350.3 716.5 350.6 716.4 350.9C716.4 351 716.4 351 716.3 351.1C714.1 353.7 711.2 355.7 707.9 357.4C710.6 357.3 712.7 356.8 714.4 356C714.1 356.6 713.9 357.2 713.6 357.8C712.4 360.5 710.8 362.8 709 364.8C706.4 361.2 704.4 357 702.8 353.2C702 351.5 701.3 349.7 700.7 348C701.9 348.8 703.3 349.5 704.5 350C703.1 348.6 701.6 346.7 701.4 345C702.8 347.6 707 348.5 710.2 348.7C706.3 347 701.5 343.5 699.4 340.4C697.7 337.8 697.6 334.3 696.8 331.5V331.8C696.7 334.1 696 336.5 695 338.5C692.9 342.4 689.7 344.6 685.4 346.7C685 346.9 684.5 347 684.1 347.2C687 347.7 689.8 347.4 691.7 345.4C690.3 347.4 689.9 348.6 687.3 350C689.4 350 691.1 349.3 692.4 348.3C690.7 354.9 686 361.2 680.2 365.7C679.5 366.3 678.6 366.9 677.8 367.5C680.3 367.3 683 366.2 685.3 364.6C683.6 368.1 682 371.8 679.7 374.9C676.3 372.6 671.2 368.1 669.5 361.3C670.7 362.4 672.1 363.3 673.7 364C671.4 361.6 670.6 358.9 669.6 356.8C670.6 359.1 673.7 359.9 676.4 360.9C674.9 360.1 671.2 357.4 669.5 354.9C668 352.8 667.2 350.3 666.9 347.8C666.7 346.8 666.6 345.7 666.6 344.7L666.3 342.2C666.4 344.5 666 346.8 665.7 349.1C665 354.7 658.3 361.2 656.6 361.9C659.5 361.7 661.6 360.3 663.1 358.6C662.7 359.4 661.9 361.3 661 362.9C657.7 368.1 653 375.3 650.2 376.2C652.6 376.9 655.9 374.7 657.8 373C657.7 373.3 657.7 373.5 657.6 373.8C657.6 373.8 657.6 373.9 657.5 373.9C655.9 375.9 653.7 377.3 651.2 378.6C653.2 378.5 654.8 378.1 656.1 377.5C655.9 378 655.7 378.4 655.5 378.8C654.9 380.1 654.2 381.2 653.5 382.3C653.3 382.1 653 381.9 652.8 381.7C647.1 376.9 642.5 370.4 641 363.6C642.3 364.7 644 365.5 646.1 365.5C643.4 364 643.1 362.7 641.7 360.7C643.6 362.8 646.4 363.3 649.3 362.8C648.9 362.5 648.4 362.5 648 362.2C643.8 359.9 640.5 357.5 638.6 353.5C637.7 351.4 637 349 637 346.6V346.3C636.1 349.1 635.9 352.6 634.1 355.3C631.9 358.4 626.8 361.8 622.8 363.4C626 363.3 630.3 362.6 631.8 360C631.5 361.8 629.9 363.6 628.4 365C629.7 364.5 631.1 363.9 632.4 363.1C631.7 364.9 630.9 366.6 630 368.3C629.1 370.2 628.1 372.2 627 374.1C623.3 371.5 617.1 366 615.1 357C616.4 358.4 618 359.5 619.7 360.3C617.3 357.4 616.3 354.1 615.2 351.6C616.2 354.4 619.7 355.4 622.6 356.5C620.9 355.5 616.9 352.3 615.1 349.3C613.5 346.7 612.6 343.7 612.2 340.7C612 339.5 611.9 338.2 611.8 337L611.5 334C611.6 336.8 611.2 339.5 610.9 342.3C610.2 349.1 602.9 356.9 601 357.8C604.1 357.6 606.4 355.8 608 353.8C607.6 354.8 606.7 357 605.7 359C602.1 365.3 596.9 374 594 375.1C596.6 376 600.2 373.3 602.3 371.2C602.2 371.5 602.2 371.8 602.1 372.1C602.1 372.2 602.1 372.2 602 372.3C600.2 374.7 597.9 376.5 595.2 378C597.4 377.9 599.1 377.4 600.5 376.7C600.3 377.2 600.1 377.8 599.9 378.3C599.3 379.7 598.7 381 597.9 382.1C595 378.8 592.7 374.9 591.6 370.7C592.6 371.6 594 372.2 595.5 372.1C593.4 371 593.1 369.9 591.9 368.1C593.4 369.8 595.5 370.1 597.7 369.5C597.4 369.3 597 369.3 596.7 369.1C593.4 367.3 590.8 365.5 589.1 362.1C588.2 360.3 587.6 358.2 587.4 356.2V355.9C586.9 358.4 587 361.5 585.9 363.9C584.5 366.8 581 370 578.1 371.6C580.5 371.3 583.6 370.4 584.6 368.1C584.5 369.7 583.4 371.4 582.5 372.7C583.4 372.2 584.4 371.6 585.3 370.8C584.9 372.4 584.4 374 583.9 375.5C582.9 378.5 581.8 381.7 580.4 384.6C577 381.9 573 377.6 571.4 371.5C572.7 372.7 574.2 373.7 575.9 374.4C573.5 371.9 572.5 368.9 571.5 366.6C572.5 369.1 575.9 370 578.8 371C577.2 370.1 573.2 367.2 571.4 364.6C569.8 362.3 568.9 359.7 568.6 356.9C568.4 355.8 568.3 354.7 568.2 353.6L567.9 350.9C568 353.4 567.6 355.8 567.3 358.3C566.6 364.3 559.4 371.3 557.5 372.1C560.6 371.9 562.8 370.4 564.4 368.6C564 369.5 563.1 371.5 562.2 373.2C558.6 378.8 553.6 386.5 550.6 387.5C553.2 388.3 556.7 385.9 558.8 384.1C558.7 384.4 558.7 384.7 558.6 384.9C558.6 385 558.6 385 558.5 385.1C556.8 387.2 554.5 388.7 551.9 390.1C551.4 389.6 550.8 388.9 550.3 388.4C546 383.8 542.6 377.6 541.5 371.2C542.5 372.2 543.7 373 545.3 373.1C543.3 371.7 543.1 370.5 542 368.5C543.4 370.5 545.5 371 547.7 370.5C547.4 370.3 547 370.2 546.7 369.9C543.5 367.7 541.1 365.5 539.6 361.6C538.9 359.6 538.4 357.3 538.4 355V354.7C537.7 357.4 537.6 360.7 536.2 363.2C534.5 366.2 530.8 369.3 527.8 370.9C530.2 370.8 533.4 370.1 534.5 367.6C534.3 369.3 533.1 371.1 532 372.3C533 371.9 534 371.3 535 370.5C534.5 372.2 533.9 373.9 533.2 375.5C531.4 380.3 529.2 385.5 526.1 389.6C525.6 388.8 525.1 388 524.7 387.4C522.6 384.1 520.9 380.4 519.7 376.7C522.6 378.8 525.7 379.7 529.8 380.2C526.5 378.3 519 373.2 516.8 364.3C518.1 365.5 519.6 366.5 521.3 367.2C518.9 364.7 517.9 361.7 516.9 359.4C517.9 361.9 521.3 362.8 524.2 363.8C522.6 362.9 518.6 360 516.8 357.4C515.2 355.1 514.3 352.5 514 349.7C513.8 348.6 513.7 347.5 513.6 346.4L513.3 343.7C513.4 346.2 513 348.6 512.7 351.1C512 357.1 505 363.9 503 364.8C499.1 361.8 494.1 356.8 492 349C493.4 350.4 495.1 351.4 496.9 352.2C494.2 349.3 493 345.8 491.8 343.2C493 346.1 496.7 346.9 499.7 347.9C497.9 347 493.6 343.8 491.5 340.7C489.7 338.1 488.6 334.9 488 331.7C487.7 330.4 487.5 329.1 487.4 327.7L486.9 324.5C487.2 327.5 486.9 330.5 486.7 333.5C486.4 340.8 479.2 349.7 477.3 350.8C480.5 350.4 482.8 348.3 484.3 346C483.9 347.1 483.2 349.5 482.3 351.7C478.9 358.7 474.1 368.4 471.1 369.8C473.8 370.5 477.4 367.4 479.4 365.1C479.4 365.5 479.3 365.8 479.2 366.1C479.2 366.2 479.2 366.2 479.2 366.3C477.5 369 475.2 371.1 472.4 372.9C474.7 372.6 476.4 372 477.8 371.1C477.6 371.7 477.4 372.3 477.2 372.9C476.5 375 475.6 376.9 474.5 378.7C470.8 373.9 468.1 367.5 465.9 361.6C465.2 359.7 464.5 357.8 463.9 355.8C465 356.7 466.1 357.4 467.2 357.9C466 356.4 464.6 354.3 464.3 352.4C465.6 355.3 469.2 356.1 471.9 356.2C468.5 354.4 464.3 350.8 462.4 347.3C460.8 344.4 460.7 340.5 459.9 337.4V337.8C459.9 340.4 459.4 343.1 458.6 345.5C457 350 454.3 352.6 450.7 355.3C450.4 355.6 449.9 355.7 449.6 356C452.1 356.5 454.4 355.9 456 353.6C454.9 355.9 454.6 357.4 452.4 359C454.2 358.9 455.6 358 456.7 356.8C455.7 362.9 453.1 368.8 449.5 373.7C447.7 371.7 446.2 369.4 445 366.7C444.7 366.1 444.5 365.5 444.2 364.8C445.9 365.6 448 366.1 450.7 366.2C447.3 364.4 444.4 362.4 442.2 359.6C442.2 359.5 442.2 359.5 442.1 359.4C442 359.1 441.9 358.7 441.8 358.3C444.3 360.7 448.8 363.7 452 362.6C448.3 361.4 441.9 351.3 437.3 344C436.1 341.7 435 339.1 434.4 337.9C436.4 340.2 439.2 342.2 443.1 342.4C440.7 341.4 431.7 332.4 430.7 324.4C430.3 321.1 429.6 317.9 429.8 314.6L429.4 318.1C429.3 319.6 429.2 321 429 322.5C428.6 326.1 427.6 329.6 425.6 332.7C423.4 336.2 418.5 340.1 416.5 341.3C420 339.9 424.2 338.6 425.4 335.4C424.1 338.4 423 342.3 420.1 345.7C422.2 344.7 424.1 343.4 425.6 341.8C423.8 349.6 419.2 355.3 415.1 359C413.2 357.5 411.3 355.6 410.3 353.8C409 351.4 408.8 348.3 408.2 345.8V346.1C408.2 348.2 407.8 350.4 407.1 352.3C405.7 355.9 403.5 358.1 400.5 360.2C400.2 360.4 399.8 360.5 399.6 360.7C401.7 361.1 403.7 360.6 405 358.7C404.1 360.6 403.8 361.7 401.9 363.1C403.4 363 404.6 362.3 405.5 361.3C405.2 363.4 404.5 365.6 403.7 367.6C399.9 365.1 395.1 360.8 393 354.3C394.4 355.4 396 356.3 397.8 357C395.2 354.6 394 351.6 392.8 349.4C394 351.8 397.5 352.5 400.4 353.4C398.7 352.6 394.5 349.9 392.5 347.4C390.7 345.2 389.7 342.5 389.1 339.8C388.8 338.7 388.7 337.6 388.5 336.5L388 333.8C388.3 336.3 388 338.8 387.8 341.3C387.5 347.5 380.6 354.9 378.7 355.9C381.8 355.5 384 353.8 385.5 351.9C385.1 352.8 384.4 354.9 383.5 356.7C380.2 362.6 375.6 370.7 372.7 371.9C375.3 372.5 378.8 369.9 380.7 367.9C380.7 368.2 380.6 368.5 380.5 368.7C380.5 368.8 380.5 368.8 380.5 368.9C378.8 371.2 376.6 372.9 374 374.5C376.2 374.2 377.9 373.8 379.2 373C379 373.5 378.8 374 378.7 374.5C377.5 377.8 375.6 380.4 373.2 382.6C369.9 378.7 367.3 374.1 365.2 369.7C364.3 368.1 363.5 366.4 362.9 364.6C364.1 365.4 365.5 366 366.8 366.4C365.4 365.1 363.8 363.3 363.5 361.6C365 364.1 369.2 364.8 372.3 364.9C368.4 363.3 363.5 360.2 361.3 357.1C359.5 354.6 359.3 351.1 358.4 348.4V348.7C358.4 351 357.8 353.4 356.9 355.4C355 359.3 351.9 361.6 347.8 363.9C347.4 364.1 346.9 364.2 346.5 364.5C349.4 364.9 352.1 364.4 353.9 362.4C352.6 364.4 352.3 365.7 349.7 367.1C351.8 367 353.4 366.2 354.6 365.2C353.6 370.2 350.8 375.1 347.1 379.2C346.4 378.1 345.9 376.7 345.6 375.2C346.2 375.9 346.9 376.4 347.7 376.9C346.6 375.5 346.2 374 345.8 372.8C346.2 374.1 347.9 374.7 349.3 375.3C348.5 374.8 346.7 373.2 345.8 371.7C345.1 370.5 344.8 369.1 344.7 367.7C344.7 367.1 344.6 366.6 344.7 366V364.6C344.7 365.9 344.3 367.1 344.1 368.3C343.5 371.3 339.5 374.5 338.6 374.8C340.2 374.8 341.4 374.2 342.2 373.3C342 373.7 341.4 374.7 340.9 375.5C340.7 375.8 340.5 376.1 340.3 376.3C337.9 375.3 333.7 369.3 330.8 364.8C330 363.4 329.2 361.8 328.9 361C330.2 362.4 332.1 363.7 334.6 363.8C333 363.2 327.1 357.6 326.4 352.6C326.1 350.6 325.7 348.6 325.8 346.5L325.6 348.7C325.6 349.6 325.5 350.5 325.3 351.4C325 353.6 324.4 355.8 323.1 357.7C321.6 359.9 318.4 362.3 317.1 363.1C319.4 362.2 322.2 361.4 323 359.4C322.2 361.3 321.4 363.7 319.5 365.8C320.9 365.2 322.1 364.4 323.2 363.4C322.2 367.6 319.8 370.8 317.4 373C316.6 372.2 315.9 371.2 315.4 370.4C314.2 368.4 313.7 366.1 313.6 363.8C313.5 362.9 313.5 361.9 313.5 361L313.4 358.7C313.3 360.8 312.8 362.8 312.3 364.8C311.6 368 308.7 371.3 306.3 373.4C303.4 370.4 300.3 366 299.4 360.3C300.6 361.6 302.1 362.8 303.7 363.6C301.5 360.8 300.8 357.7 299.9 355.4C300.7 358 304.1 359.2 306.9 360.5C305.3 359.5 301.6 356.2 299.9 353.3C298.5 350.8 297.9 348.1 297.7 345.3C297.6 344.2 297.6 343 297.6 341.9L297.5 339.2C297.4 341.7 296.7 344.1 296.2 346.6C294.9 352.7 287 359 285.1 359.7C288.2 359.8 290.7 358.4 292.4 356.8C291.9 357.7 290.8 359.6 289.7 361.3C286.7 365.2 282.9 370.1 279.8 372.7C276.9 368.9 274.6 364.6 272.6 360.5C271.7 358.7 270.8 356.9 270.1 355.1C271.4 355.9 272.9 356.6 274.2 357C272.7 355.6 271 353.7 270.7 351.9C272.3 354.6 276.8 355.3 280.1 355.4C275.9 353.7 270.7 350.3 268.4 347.1C266.5 344.4 266.3 340.7 265.3 337.9V338.3C265.3 340.7 264.7 343.3 263.7 345.5C261.7 349.7 258.4 352.1 254 354.6C253.6 354.9 253 354.9 252.6 355.2C255.7 355.6 258.6 355.1 260.5 352.9C259.1 355.1 258.8 356.4 256 358C258.2 357.9 259.9 357.1 261.3 355.9C259.9 362.7 255.4 369.3 249.8 374.3C247.8 371.9 245.4 368.2 244.7 363.1C245.4 364.1 246.4 365 247.4 365.7C246 363.6 245.6 361.2 245.1 359.3C245.6 361.3 247.7 362.2 249.4 363.2C248.4 362.4 246.1 359.9 245.1 357.7C244.2 355.8 243.8 353.7 243.7 351.5C243.6 350.6 243.6 349.8 243.7 348.9L243.6 346.8C243.6 348.8 243.1 350.6 242.8 352.5C242 357.2 237.1 362.1 235.9 362.6C237.8 362.7 239.3 361.6 240.4 360.3C240.1 361 239.4 362.5 238.7 363.8C236.2 368 232.6 373.6 230.7 374.1C232.3 374.9 234.6 373.3 236 372C235.9 372.2 235.9 372.4 235.8 372.6V372.7C234.6 374.2 233 375.3 231.3 376.2C232.7 376.3 233.7 376.1 234.6 375.7C234.4 376.1 234.3 376.4 234.1 376.8C233.7 377.7 233.3 378.4 232.8 379.2C229 375.5 226.3 370.6 224 366.1C223.2 364.6 222.5 363.1 221.9 361.6C223 362.3 224.2 362.8 225.4 363.2C224.1 362 222.7 360.4 222.4 358.9C223.8 361.2 227.5 361.8 230.3 361.8C226.8 360.4 222.4 357.6 220.4 354.9C218.8 352.6 218.6 349.6 217.8 347.2V347.5C217.8 349.5 217.3 351.7 216.4 353.5C214.7 357 211.9 359.1 208.2 361.1C207.8 361.3 207.4 361.4 207 361.6C209.6 362 212.1 361.5 213.7 359.7C212.5 361.5 212.3 362.6 209.9 363.9C211.8 363.8 213.2 363.1 214.4 362.2C213.2 368.1 209.2 373.8 204.2 378C203.8 378.3 203.4 378.7 202.9 379C202.6 378.6 202.3 378.3 202.1 378C199.1 374.4 196.7 370.4 195.1 366.3C199.3 368.6 203.8 369.7 209.8 370.2C205 368.1 194.2 362.4 191.2 352.7C191.2 352.7 191.2 352.7 191.3 352.8C193.2 354.1 195.4 355.2 197.8 356C194.3 353.2 193 350 191.5 347.5C192.9 350.2 197.9 351.2 202 352.4C199.6 351.4 193.9 348.2 191.3 345.3C189 342.8 187.8 339.9 187.3 336.9C187.1 335.7 186.9 334.5 186.8 333.3L186.4 330.4C186.6 333.1 185.8 335.7 185.3 338.4C184.1 344.9 173.5 352.3 170.7 353.2C175.2 353.1 178.5 351.4 180.9 349.5C180.3 350.5 179 352.6 177.5 354.5C173.4 359.2 167.9 365.2 163.6 368.1C162.5 366.4 161.6 364.7 160.8 363C160.3 362 159.8 361 159.4 359.9C160.1 360.4 161 360.7 161.7 361C160.9 360.2 159.9 359.1 159.7 358.1C160.6 359.6 163.2 360 165 360.1C162.6 359.2 159.7 357.2 158.3 355.4C157.2 353.9 157.1 351.8 156.5 350.1V350.3C156.5 351.7 156.1 353.1 155.6 354.4C154.4 356.8 152.6 358.2 150.1 359.6C149.9 359.7 149.6 359.8 149.3 359.9C151.1 360.1 152.7 359.9 153.8 358.6C153 359.8 152.8 360.6 151.3 361.5C152.6 361.5 153.5 361 154.3 360.3C153.5 364.3 150.8 368.2 147.4 371C147 371.4 146.5 371.8 146 372.1C147.5 371.9 149.1 371.2 150.4 370.2C149.6 372 148.9 373.8 148 375.5C145.6 372.7 143.4 369 142.6 364.4C143.7 365.7 145.1 366.7 146.6 367.5C144.5 364.9 143.9 362 143.1 359.8C143.9 362.2 147 363.3 149.6 364.5C148.1 363.5 144.6 360.5 143.1 357.8C141.8 355.5 141.2 352.9 141.1 350.3C141 349.2 141 348.2 141 347.1L140.9 344.5C140.8 346.9 140.2 349.1 139.7 351.5C138.5 357.2 131.1 363.1 129.3 363.7C132.2 363.8 134.5 362.5 136.2 360.9C135.7 361.7 134.7 363.5 133.7 365.1C130.5 369.4 126 374.9 123 376.9C121.6 374.4 120.7 371.7 120.3 369C121.2 369.9 122.5 370.7 124.2 370.9C122.2 369.5 122 368.5 121.1 366.8C122.4 368.6 124.6 369.2 127 369C126.7 368.8 126.3 368.7 126 368.4C122.8 366.3 120.4 364.2 119.1 360.9C118.5 359.2 118.2 357.2 118.3 355.3V355C117.4 357.1 117 359.9 115.4 361.9C113.4 364.2 109.2 366.5 105.9 367.5C108.4 367.6 111.9 367.4 113.3 365.4C112.9 366.8 111.5 368.1 110.3 369.1C111.4 368.8 112.5 368.4 113.6 367.9C112.9 369.3 112.2 370.6 111.4 371.9C109.2 375.7 106.5 379.7 103.1 382.7C102.8 382 102.5 381.3 102.2 380.8C100.5 377.3 99.4 373.5 98.6 369.6C101.1 371.9 103.7 373.2 107.4 374C104.6 371.8 98.3 366.1 96.9 357C98 358.3 99.3 359.4 100.7 360.3C98.7 357.6 98.1 354.5 97.3 352.2C98 354.7 101 355.9 103.5 357.2C102.1 356.2 98.8 352.9 97.3 350.1C96 347.7 95.5 345 95.4 342.2C95.3 341.1 95.3 340 95.3 338.9L95.2 336.2C95.1 338.7 94.5 341.1 94 343.5C92.9 349.5 85.8 355.7 84.1 356.4C86.9 356.5 89 355.1 90.6 353.5C90.2 354.4 89.2 356.3 88.2 358C87.7 358.8 87.1 359.6 86.5 360.5C83.5 358.8 81.2 357.1 79.8 354.1C79.1 352.6 78.7 350.8 78.7 349V348.8C78 350.8 77.9 353.4 76.5 355.3C75.5 356.6 73.9 358 72.1 359.1C69.7 356.2 67.6 352.4 66.8 347.8C68 349.1 69.5 350.3 71.1 351.1C68.9 348.3 68.2 345.2 67.3 342.8C68.1 345.4 71.5 346.6 74.3 347.9C72.7 346.9 69 343.6 67.3 340.7C65.9 338.2 65.3 335.5 65.1 332.7C65 331.6 65 330.4 65 329.3L64.9 326.6C64.8 329.2 64.1 331.6 63.6 334.1C62.5 339.2 56.8 344.5 53.8 346.4C48.7 340.7 45 333.7 44.1 326.7C45.4 328.1 47.3 329.1 49.7 329.4C46.8 327.4 46.6 326 45.3 323.5C47.2 326 50.3 326.9 53.7 326.7C53.3 326.4 52.7 326.2 52.2 325.9C47.6 322.8 44.2 319.9 42.4 315.1C41.5 312.6 41.1 309.8 41.3 307.1V306.7C40 309.8 39.4 313.7 37.1 316.5C34.2 319.8 28.2 323.1 23.5 324.5C27.1 324.7 32.1 324.3 34.1 321.5C33.6 323.5 31.6 325.4 29.8 326.8C31.3 326.4 33 325.8 34.5 325.1C33.5 327 32.5 328.9 31.3 330.8C27.8 336.6 23.7 343 18.2 347.4C20.6 346.6 23.1 345.8 25.4 344.7C24.1 346.9 22.7 349 21.2 350.9C17.7 347.9 13.1 342.8 11.9 335.5C13.1 336.8 14.6 338 16.2 338.8C14 336 13.3 332.9 12.4 330.5C13.2 333.1 16.6 334.3 19.4 335.6C17.8 334.6 14.1 331.3 12.4 328.4C11 325.9 10.4 323.2 10.2 320.4C10.1 319.3 10.1 318.1 10.1 317L10 314.3C9.9 316.9 9.19995 319.3 8.69995 321.8C7.39995 327.9 -0.5 334.3 -2.5 334.9C0.7 335 3.09996 333.6 4.89996 331.9C4.39996 332.8 3.39995 334.7 2.19995 336.4C-1.90005 341.8 -7.80002 349.2 -10.9 349.9C-8.40002 350.9 -4.50005 348.8 -2.30005 347.2C-2.40005 347.5 -2.50004 347.8 -2.60004 348C-2.60004 348.1 -2.60001 348.1 -2.70001 348.2C-4.70001 350.2 -7.2 351.6 -10 352.8C-7.8 352.9 -6.00004 352.6 -4.60004 352.1C-4.90004 352.6 -5.10002 353 -5.40002 353.5C-7.80002 357.7 -11.1 360.5 -15.2 362.7C-16.8 363.5 -18.3 364.2 -20.1 364.8C-16.2 366.3 -13.2 364.4 -10.1 362.2C-12.4 365 -15.7 366.9 -18.7 368.8C-16.8 369.8 -12.9 368.1 -11.1 367.2C-11.6 369.9 -13.9 373.1 -15.4 375C-18.5 379 -23 382.1 -27 385.1C-22.3 385.8 -17.5 383.3 -14 380.4C-16.4 384.1 -20.2 386.4 -23.4 389.2C-18.6 390.2 -14.1 386.1 -11.3 382.8C-11.8 385.5 -13.8 387.8 -15.2 390C-13.2 389.4 -10.9 388.2 -9 386.7V389.1C-9.9 390.2 -10.8 391.3 -11.7 392.4C-10.7 392.3 -9.8 391.9 -9 391.5V634.5H794.3V402.5C795.8 404.7 797.6 406.6 799.3 408.1C798.8 403.5 797.7 398.7 797.4 394.1C799.8 398.6 805 402.4 809.4 404.9C806.4 401.3 805.7 397 804.1 392.8C806.5 396.9 814.3 402.9 820.1 403.8C815.7 401.1 810.2 393.5 808.2 389.2C813.2 395 823.4 398.9 836.5 395.1ZM247.3 384.7C247.4 385.1 247.7 385.5 248 385.9C247.9 386 247.8 386.1 247.7 386.3C247.5 385.7 247.4 385.2 247.3 384.7ZM278.9 375.2C279.5 375.5 280.2 375.8 280.8 376.1C280 376.5 279.2 376.9 278.4 377.3C278 376.6 277.7 375.9 277.3 375.2C277.8 375.3 278.3 375.3 278.9 375.2ZM318.1 379.3C317.3 378.3 316.7 377.2 316.3 376.1C316.9 375.9 317.5 375.7 318.1 375.4C318.7 375.7 319.2 376 319.8 376.2C319 378.4 318 380.6 316.7 382.6C315.7 380.8 314.9 378.8 314.5 376.5C315.5 377.6 316.7 378.5 318.1 379.3ZM146.2 398.3C146 397.5 145.8 396.6 145.7 395.7C146.1 396.1 146.8 396.7 147.7 397.4C147.2 397.7 146.7 398 146.2 398.3ZM147 390.4C147.2 391 147.7 391.7 148.4 392.3C148.3 392.3 148.3 392.3 148.2 392.4C148.3 392.4 148.3 392.4 148.4 392.4C148.3 392.7 148.2 393 148.2 393.3C148.5 393.2 148.8 393 149 392.9C149.2 393 149.3 393.2 149.5 393.3C149.2 393.4 149 393.6 148.7 393.7C149.2 393.7 149.5 393.7 149.9 393.7C150.2 393.9 150.5 394.1 150.7 394.3C150.3 395 149.8 395.6 149.3 396.1C148.1 394 147.2 391.9 147 390.4ZM152.1 391.2C152.1 391.3 152.1 391.3 152.1 391.4V391.5C151.7 391.9 151.4 392.2 150.9 392.4C150.8 392.3 150.7 392.1 150.6 392C151.1 391.8 151.6 391.5 152.1 391.2ZM148.1 400.5H147.9C148 400.5 148 400.5 148.1 400.5ZM148.7 388.4C148.8 388.6 148.8 388.8 148.8 388.9C148.7 388.8 148.6 388.6 148.6 388.5C148.6 388.5 148.6 388.4 148.7 388.4ZM148.5 398.1C148 398.8 147.3 399.3 146.7 399.8C146.6 399.6 146.6 399.4 146.5 399.3C147.2 399 147.8 398.6 148.5 398.1ZM159.8 391.7C159.8 391.8 159.9 391.9 159.9 391.9C159.9 391.9 159.9 392 159.8 392C159.9 392 159.9 391.8 159.8 391.7ZM124.5 384.2C124.4 383.9 124.3 383.6 124.2 383.2C124.4 383.4 124.6 383.6 124.9 383.7C124.7 383.9 124.6 384.1 124.5 384.2ZM250.2 388.3C250.3 388.4 250.3 388.4 250.4 388.5C250.1 389.1 249.7 389.7 249.3 390.3C249.2 390 249 389.8 248.9 389.5C249.4 389.1 249.8 388.7 250.2 388.3ZM248.5 391.3C248.1 391.8 247.7 392.4 247.2 392.9C247.1 392.4 246.9 391.9 246.8 391.4C246.8 391.2 246.7 391 246.7 390.8C247 390.7 247.3 390.5 247.5 390.3C247.9 390.6 248.2 390.9 248.5 391.3ZM317.5 392C317.4 391.6 317.2 391.3 317.1 390.9C317.5 390.6 317.8 390.4 318 390.2C317.8 390.9 317.6 391.5 317.5 392ZM316.2 388C316.1 387.7 316 387.4 316 387.1C316.2 387.2 316.3 387.4 316.5 387.5C316.4 387.6 316.3 387.8 316.2 388ZM338.2 381.4C338.1 381.4 338.1 381.5 338.2 381.4C337.9 381.7 337.6 382 337.4 382.2C337.3 382.1 337.2 382 337.1 381.8C337.6 381.5 338 381.3 338.4 381C338.3 381.2 338.2 381.3 338.2 381.4ZM282 378.5C281.6 379.3 281.1 380 280.6 380.7C280.5 380.6 280.5 380.5 280.4 380.4C279.8 379.6 279.3 378.7 278.8 377.8C280.4 377.8 281.7 377.5 282.8 377.1C282.5 377.6 282.2 378.1 282 378.5ZM449.4 378C449.5 378.1 449.6 378.2 449.7 378.2V378.3C449.6 378.3 449.5 378.2 449.4 378ZM551.2 405C551.1 404.8 550.9 404.6 550.8 404.4C551 404.3 551.2 404.2 551.4 404C551.3 404.4 551.3 404.7 551.2 405ZM501.5 381.7L501.6 381.8C501.5 382 501.4 382.2 501.3 382.4C501.2 382.2 501.1 382 501.1 381.9C501.2 381.9 501.4 381.8 501.5 381.7ZM492 406.1C492 406.2 492.1 406.2 492.1 406.3H492C492 406.2 492 406.2 492 406.1ZM373.5 389.6C374 389.3 374.5 388.9 374.9 388.7C374.9 389.5 374.7 390.3 374.4 391.2C374.1 390.6 373.8 390.1 373.5 389.6ZM622 386.6C622 386.7 622.1 386.7 622.1 386.8C622.1 386.7 622 386.7 622 386.6ZM577.5 404.7C577.4 404.3 577.3 403.9 577.2 403.5C577.3 403.6 577.5 403.8 577.7 403.9C577.7 404.2 577.6 404.4 577.5 404.7ZM650.5 393.4C650.6 393.5 650.6 393.5 650.7 393.6C650.7 393.6 650.7 393.6 650.7 393.7C650.6 393.5 650.5 393.5 650.5 393.4ZM660.9 405.6C661 405.4 661.1 405.3 661.1 405.1C661.1 405.3 661.1 405.4 661.2 405.6H660.9ZM676 385.5C676.1 385.7 676.2 385.8 676.3 386L676.2 386.1C676.2 385.9 676.1 385.7 676 385.5ZM681.5 393.8C681.5 393.9 681.5 394 681.6 394.1C681.5 394 681.5 393.9 681.4 393.9C681.4 393.9 681.4 393.9 681.5 393.8ZM685.2 398.1C685.7 397.5 686.2 396.8 686.5 396.3C686.6 396.7 686.7 397.2 686.8 397.7L685.2 398.1ZM708.4 369.3C708.4 369.2 708.3 369.1 708.3 369.1C708.6 368.9 708.8 368.7 709.1 368.5C708.8 368.7 708.6 369 708.4 369.3ZM740.1 358.8C738.5 355.8 737.2 352.6 736.1 349.3C738.4 351 740.8 352 743.6 352.7C742.7 354.9 741.5 356.9 740.1 358.8ZM707 366.5C706.8 366.1 706.7 365.8 706.5 365.4C706.8 365.6 707.2 365.8 707.5 366C707.3 366.2 707.2 366.3 707 366.5ZM650.8 387.9C650.7 387.8 650.7 387.7 650.6 387.6C650.9 387.3 651.3 387.1 651.6 386.8C651.4 387.2 651.1 387.5 650.8 387.9ZM623.6 384.4C623.3 383.9 623 383.3 622.7 382.9C622.6 382.7 622.5 382.5 622.4 382.3C623.5 381.8 624.5 381.3 625.5 380.7C624.9 381.9 624.3 383.2 623.6 384.4ZM551.4 399.8C551.4 399.7 551.3 399.7 551.3 399.6C551.5 399.4 551.7 399.3 551.9 399.1C551.7 399.3 551.6 399.5 551.4 399.8ZM549.8 401.5C549.6 401.7 549.5 401.8 549.3 402C549.2 401.8 549 401.5 548.9 401.3C549 401.2 549.2 401.1 549.3 401.1C549.5 401.2 549.7 401.4 549.8 401.5ZM523.8 400C523.7 399.7 523.6 399.4 523.5 399.1C523.2 398.3 522.9 397.3 522.7 396.3C523.2 396.7 524 397.3 524.9 397.9C524.4 398.6 524.1 399.3 523.8 400ZM503.3 377.6C503.3 377.7 503.3 377.7 503.2 377.8C503 378.1 502.7 378.3 502.5 378.6C502.4 378.4 502.2 378.2 502.1 378C502.6 377.6 503.1 377.2 503.5 376.8C503.4 377 503.4 377.3 503.3 377.6ZM472.8 384.6C472.8 384.5 472.7 384.5 472.7 384.4C472.8 384.2 473 384.1 473.1 383.9C473 384.1 472.9 384.3 472.8 384.6ZM416.7 377.4C416.6 377.7 416.5 378 416.4 378.2C416.3 378.1 416.3 377.9 416.2 377.8C416.3 377.6 416.4 377.5 416.5 377.3C416.7 377.4 416.7 377.4 416.7 377.4ZM411.2 360.7C411.4 360.9 411.7 361.1 411.9 361.2C411.7 361.3 411.6 361.4 411.4 361.5C411.4 361.3 411.3 361 411.2 360.7ZM372.1 387.4C371.9 387.1 371.7 386.8 371.5 386.5C372.4 385.9 373.3 385.2 374.2 384.4C374.3 384.4 374.4 384.5 374.5 384.5C373.8 385.6 373 386.5 372.1 387.4ZM347.6 382.6C347.4 383.1 347.2 383.6 346.9 384.1C346.7 383.6 346.6 383.1 346.4 382.6C346.6 382.5 346.8 382.4 347 382.2C347.2 382.3 347.4 382.5 347.6 382.6ZM336.3 380.7C336 380.2 335.7 379.6 335.4 379.1C335.2 378.7 335.1 378.3 334.9 377.9C335.8 378.3 336.8 378.6 338.1 378.7C337.5 379.4 336.9 380.1 336.3 380.7ZM319.8 376C319.5 375.7 319.1 375.4 318.7 375.1C319.3 374.8 319.9 374.4 320.5 374C320.3 374.6 320.1 375.3 319.8 376ZM251 387.5C250.9 387.6 250.9 387.7 250.8 387.8C250.8 387.8 250.8 387.8 250.7 387.7C250.9 387.6 250.9 387.5 251 387.5C251 387.5 251 387.4 251 387.5ZM205.7 388.6C205.7 388.7 205.6 388.8 205.5 388.9C205.5 388.9 205.5 388.9 205.4 388.8C205.5 388.8 205.6 388.7 205.7 388.6ZM204.3 390.8C203.6 391.8 202.8 392.8 201.9 393.8C201.5 393.2 201.2 392.6 200.8 391.9C201.9 391.5 202.8 391 203.5 390.5C203.9 390.6 204.1 390.7 204.3 390.8ZM200.1 390.3C199.8 389.6 199.5 388.8 199.3 388.1C199.8 388.4 200.5 388.8 201.4 389.3C201 389.6 200.6 390 200.1 390.3ZM168.2 373.3C167.6 374.3 166.9 375.2 166.1 376.1C165.7 375.4 165.4 374.8 165 374.3C164.7 373.8 164.3 373.3 164 372.8C166 372.6 167.7 372.3 169.1 371.8C168.8 372.3 168.5 372.8 168.2 373.3ZM163.6 372.1C163.4 371.6 163.1 371.2 162.9 370.7C163.5 371 164.1 371.3 164.7 371.6C164.3 371.8 164 372 163.6 372.1ZM147.9 379.1C147.3 380 146.5 381.1 145.7 382C145.5 381.5 145.4 381 145.2 380.5C146.2 380.1 147.1 379.6 147.7 379C147.7 379 147.8 379.1 147.9 379.1ZM126.4 381.4C126.2 381.7 126.1 381.9 125.9 382.2C125.5 381.7 125.1 381.2 124.7 380.7C125.6 380.6 126.4 380.4 127.1 380.2C126.9 380.5 126.7 380.9 126.4 381.4ZM101.2 395.8C101.2 395.7 101.2 395.7 101.1 395.6C101.2 395.6 101.2 395.6 101.3 395.5C101.3 395.7 101.2 395.8 101.2 395.8ZM74.7 362.6C74.5 362.4 74.3 362.3 74.1 362.1C74.4 361.9 74.8 361.7 75.1 361.5C75 361.8 74.8 362.2 74.7 362.6ZM73.8 364.4C73.6 364.7 73.5 365 73.3 365.4C72.6 366.8 71.9 368.2 71.1 369.6C70 367.1 69.2 364.4 68.6 361.7C68.7 361.7 68.9 361.7 69 361.7C70.5 362.8 72 363.7 73.8 364.4ZM52.6 354.9C51.6 352.3 50.8 349.6 49.9 346.9C51.7 348.5 53.9 349.8 56 350.6C54.9 352 53.8 353.5 52.6 354.9ZM17.2 364.6C17.1 364.7 17.1 364.8 17 364.9C17 364.8 17 364.7 16.9 364.6C17 364.6 17.1 364.6 17.2 364.6ZM677.4 396.6C678.6 395.9 679.7 395.2 680.6 394.5C681 394.7 681.3 394.9 681.6 395C681.7 396.3 681.5 397.3 680.9 399.3L679.4 399.8C678.6 398.8 678 397.7 677.4 396.6ZM690.8 395.6C690.8 395.9 690.8 396.3 690.8 396.6L690.5 396.7C690.6 396.3 690.7 395.9 690.8 395.6ZM766.3 361.8C765.8 362.6 765.3 363.4 764.7 364.1C763.8 362.8 762.9 361.5 762.1 360.2C763.5 360.8 764.9 361.3 766.3 361.8ZM745 342.1C743.9 344.3 743.7 345.5 741.2 347.2C743.2 346.9 744.8 346 745.9 344.8C745.7 346.8 745.1 348.9 744.4 350.9C742.4 349.4 740.1 347.4 738.1 344.9C740.9 344.9 743.4 344.2 745 342.1ZM677 382.9C676.9 382.7 676.8 382.6 676.7 382.4C676.3 381.8 676 381.2 675.6 380.6C678.3 379.9 680.2 378.4 681.6 377C680.5 378.7 678.9 381 677 382.9ZM679 375.3C677.8 376.7 676.5 378 674.8 379.1C673.7 377 672.8 374.8 672.1 372.5C674.1 373.9 676.3 374.8 679 375.3ZM652.5 382.8C651.7 383.8 650.7 384.8 649.7 385.7C648.8 383.9 648.1 382 647.2 380.2C648.9 381.3 650.7 382.3 652.5 382.8ZM626.3 374.4C625 376.7 623.5 379 621.7 381C620 377.8 618.6 374.3 617.6 370.7C620.3 372.8 623 373.9 626.3 374.4ZM578.9 386.2C578.3 387.4 577.6 388.5 576.8 389.5C578.2 388.7 579.6 387.8 580.9 386.7H581C580.4 388.6 579.8 390.4 578.9 392.1C578.7 392.6 578.4 393.1 578.2 393.7C576.3 390.6 574.8 387.2 573.7 383.7C575.4 384.9 577 385.7 578.9 386.2ZM551.1 390C551.2 390 551.3 390 551.3 390C551.3 390 551.3 390 551.2 389.9C553.3 389.8 554.9 389.4 556.2 388.8C556 389.3 555.8 389.8 555.6 390.2C554.2 393.2 552.3 395.6 550 397.7C548.1 394.5 547 390.6 545.7 387C547.3 388.5 549.3 389.6 551.1 390ZM529.5 387.4C528.9 389 528.2 390.6 527.5 392.1C526.9 391.3 526.3 390.5 525.7 389.7C527 389.1 528.3 388.3 529.5 387.4ZM526.7 393.8C526.4 394.4 526.1 395 525.8 395.6C524.6 393.8 523.8 392 523.4 390.6C523.9 391.7 525.3 392.9 526.7 393.8ZM505.9 367.2C505 366.7 503.7 365.9 502.3 364.8C505.3 364.6 507.6 363 509.1 361.3C508.7 362.2 507.8 364.2 506.9 365.9C505 368.9 502.7 372.5 500.4 375.4C498.2 371.8 496.4 367.9 495.1 363.8C498.3 366 501.6 367 505.9 367.2ZM471.5 381.9C470.5 380 469.7 377.8 468.8 375.7C470.3 376.9 472.1 377.9 473.8 378.8C473.1 379.9 472.4 381 471.5 381.9ZM421.9 358.2C420.5 363.2 418.5 368.1 415.9 372.5C415.9 372.5 415.9 372.5 415.9 372.6C414.8 370.3 413.8 367.9 412.9 365.5C412.5 364.6 412.2 363.6 411.8 362.6C412.4 362.5 413 362.4 413.5 362.2C413.6 362.3 413.8 362.4 413.9 362.4C413.8 362.3 413.8 362.2 413.7 362.1C414.9 361.8 416.1 361.4 417.2 360.9C417.4 360.9 417.7 360.9 417.9 360.9C417.8 360.8 417.7 360.8 417.6 360.7C419.1 360.1 420.5 359.2 421.9 358.2ZM413.6 359.9C413.3 360.2 413 360.4 412.7 360.6C412.2 359.7 411.7 358.8 411.6 357.9C412 358.8 412.7 359.5 413.6 359.9ZM402.7 369.1C401.9 370.8 401 372.4 399.9 373.9C398.5 371.6 397.3 369.1 396.4 366.6C398.4 367.9 400.4 368.7 402.7 369.1ZM375.1 383.6C374.9 383.9 374.8 384.1 374.6 384.3C374.5 384.2 374.5 384.2 374.4 384.1C374.7 384 374.9 383.8 375.1 383.6ZM370.5 384.7C370 383.8 369.5 382.9 369.1 382C370 382.6 371 383.1 372 383.5C371.5 383.9 371 384.3 370.5 384.7ZM339.8 376.7C339.4 377.3 338.9 377.8 338.4 378.4C336.5 377.4 334.9 376.2 333.6 374.7C333.6 374.7 333.6 374.6 333.5 374.6C333.4 374.4 333.3 374.2 333.3 373.9C334.9 375.3 337.7 377.1 339.8 376.7ZM316.1 374.1C315.9 374.2 315.8 374.4 315.6 374.5C315.3 373.8 315.1 373.1 314.9 372.4C315.2 373.1 315.6 373.7 316.1 374.1ZM308.8 373.6C308.6 374 308.2 374.7 307.7 375.6C307.5 375.4 307.3 375.2 307 375C307.7 374.5 308.3 374.1 308.8 373.6ZM304.4 375.9C305.2 376.3 306 376.6 306.8 376.9C306.7 377 306.6 377.1 306.6 377.3C305.6 378.6 304.5 380 303.4 381.4C302.3 378.9 301.5 376.2 300.9 373.5C301.8 374.3 302.7 374.9 303.7 375.5C303.3 375.7 303 375.9 302.8 376C303.4 376 303.9 376 304.4 375.9ZM285 372.3C284.9 372.6 284.8 372.9 284.7 373.1C284.7 373.2 284.7 373.2 284.6 373.3C283.7 374.2 282.7 375 281.6 375.7C281.3 375.4 281 375.1 280.8 374.8C282.4 374.1 283.9 373.2 285 372.3ZM277.1 374.8C277 374.5 276.8 374.3 276.7 374C277 374.2 277.3 374.4 277.6 374.5C277.4 374.7 277.3 374.8 277.1 374.8ZM248.3 375.6C247.7 376.1 247 376.6 246.5 377.1C247.6 377 248.7 376.7 249.7 376.2C250.3 376.4 250.9 376.6 251.6 376.8C251.3 376.6 251 376.2 250.6 375.9C251.9 375.3 253.1 374.6 254.3 373.8C252.7 377.5 251.3 381.3 249.1 384.6C248.7 383.7 248.3 382.9 248.1 382.2C247 379.5 246.1 376.5 245.6 373.5C246.3 374.3 247.3 375 248.3 375.6ZM230.2 382.3C229.2 380.8 228.3 379.1 227.4 377.4C228.9 378.3 230.7 379.1 232.3 379.7C231.7 380.7 231 381.6 230.2 382.3ZM208.4 377.1C207.6 379 206.8 381 205.8 382.9C204.7 381.8 203.8 380.7 202.9 379.7C204.8 379.3 206.7 378.3 208.4 377.1ZM204.7 385C204.4 385.6 204 386.2 203.6 386.7C202.2 385 201.2 383.2 200.7 381.9C201.3 382.9 203 384 204.7 385ZM171.9 366.5C171.8 366.8 171.7 367.1 171.5 367.4C171.5 367.5 171.4 367.5 171.4 367.6C169.7 369.1 167.7 370.3 165.4 371.4C165 371 164.6 370.5 164.3 370C167.1 369.2 170 367.8 171.9 366.5ZM144.8 379.4C144.5 378.5 144.3 377.6 144.1 376.7C144.7 377.2 145.4 377.7 146.1 378.1C145.7 378.6 145.3 379 144.8 379.4ZM129.3 375.6C129.2 375.9 129.1 376.1 129 376.3C129 376.3 129 376.4 128.9 376.4C127.6 377.8 125.9 378.8 124.2 379.7C123.9 379.2 123.6 378.8 123.3 378.3C125.4 378.1 127.7 376.7 129.3 375.6ZM107 382.1C106.2 383.5 105.3 384.8 104.4 386C103.9 385.2 103.5 384.4 103.1 383.6C104.4 383.2 105.7 382.7 107 382.1ZM103.2 387.5C102.9 387.9 102.6 388.3 102.3 388.7C101.6 387.2 101.2 385.7 101 384.5C101.3 385.5 102.2 386.6 103.2 387.5ZM100.7 391.1C100.5 391.4 100.3 391.6 100.1 391.8C100 391.3 99.9 390.7 99.8 390.2C100 390.4 100.3 390.7 100.7 391.1ZM86 361.5C85.6 362.1 85.2 362.6 84.8 363.2C83.1 362.2 82.9 361.3 82 359.8C83 361 84.4 361.5 86 361.5ZM84.6 363.4C83.9 364.3 83.3 365.1 82.6 366C82 364.7 81.6 363.4 81.3 362C82.2 362.7 83.3 363.2 84.6 363.4ZM74.7 359.2C74.6 360 74.1 360.7 73.5 361.4C73.3 361.2 73.1 360.9 72.8 360.7C73.6 360.4 74.3 359.9 74.7 359.2ZM68.6 361.5C68.6 361.4 68.6 361.3 68.5 361.3C68.6 361.4 68.6 361.4 68.7 361.5C68.7 361.4 68.6 361.4 68.6 361.5ZM59.7 344.8C59.2 345.7 58.2 347.6 57 349.3C56.9 349.5 56.7 349.7 56.6 349.9C56.3 349.6 55.9 349.2 55.6 348.9C55.2 348.5 54.8 348 54.4 347.6C56.6 347.2 58.3 346.1 59.7 344.8ZM20.3 352.6C19.2 354.1 17.9 356 16.6 357.8C15.4 355 14.4 352 13.7 349C15.6 350.7 17.7 351.8 20.3 352.6Z"
                fill="#E6F1EF" fill-opacity="0.5" />
            <path
                d="M1365.7 459.2C1359 454.2 1351.5 449 1346.2 442.2C1343.8 439 1339.8 433.6 1339 429C1342 430.6 1348.6 433.5 1351.8 431.7C1346.7 428.5 1341.2 425.4 1337.3 420.6C1342.6 424.2 1347.6 427.5 1354.2 424.9C1351.2 424 1348.7 422.8 1346 421.4C1339 417.8 1333.4 413 1329.5 406C1329.1 405.2 1328.6 404.5 1328.2 403.7C1330.7 404.6 1333.6 405 1337.3 404.9C1332.5 402.9 1328.3 400.6 1325 397.2C1325 397.1 1324.9 397 1324.9 396.9C1324.7 396.5 1324.5 396 1324.4 395.6C1328.1 398.4 1334.6 401.9 1338.8 400.2C1333.6 399 1323.8 386.6 1316.8 377.6C1314.9 374.7 1313.1 371.5 1312.3 370C1315.3 372.8 1319.4 375.1 1324.7 375C1321.4 373.9 1308 363.2 1305.9 353C1305 348.8 1303.8 344.7 1303.7 340.5L1303.5 345.1C1303.6 347 1303.5 348.9 1303.4 350.8C1303.1 355.5 1302.1 360.2 1299.7 364.3C1296.9 369.1 1290.6 374.6 1288 376.4C1292.7 374.2 1298.4 372.2 1299.8 367.8C1298.3 371.8 1297.2 377 1293.4 381.7C1296.2 380.2 1298.6 378.3 1300.7 376.1L1300.8 376C1298.8 388.2 1291 397 1285.1 401.9C1282.5 398.7 1280.3 395.1 1278 391.5C1281.8 393.4 1286 394.8 1290.1 396.1C1280.8 388.6 1273.8 378 1268 368.2C1266 365.1 1264.2 361.9 1262.6 358.7C1265.1 360 1267.9 361 1270.4 361.6C1267.5 359.3 1264 356 1263.2 352.7C1266.5 357.4 1274.9 358 1281 357.7C1273.1 355.3 1263 349.8 1258.2 344.2C1254.3 339.5 1253.3 332.8 1251.1 327.7L1251.2 328.3C1251.6 332.8 1250.8 337.5 1249.3 341.7C1246.2 349.7 1240.5 354.7 1232.8 359.8C1232.1 360.3 1231.1 360.6 1230.3 361.1C1236 361.4 1241.3 360 1244.5 355.8C1242.3 360 1241.9 362.5 1237 365.8C1241 365.3 1244.1 363.5 1246.4 361.2C1244.9 373 1238.6 384.8 1230.1 394.4C1225 391.1 1215.4 382.2 1213.7 373.6C1212.8 369.4 1211.6 365.4 1211.5 361L1211.3 365.6C1211.4 367.5 1211.3 369.4 1211.2 371.3C1210.9 376 1209.9 380.7 1207.5 384.8C1204.7 389.6 1198.4 395.1 1195.8 396.9C1200.5 394.7 1206.2 392.7 1207.6 388.3C1206.1 392.3 1205 397.5 1201.2 402.2C1204 400.7 1206.4 398.8 1208.5 396.6L1208.6 396.5C1207.3 404.3 1203.7 410.7 1199.7 415.6C1196.7 413.7 1193.9 411.4 1192.3 409.1C1190 405.9 1189.8 401.5 1188.6 398.1V398.5C1188.6 401.4 1187.8 404.4 1186.7 407C1184.3 411.9 1180.5 414.8 1175.4 417.7C1174.4 416.3 1173.4 414.9 1172.5 413.5C1170.8 410.7 1169.2 407.5 1168.5 406.1C1171.2 408.9 1174.8 411.2 1179.5 411C1176.5 409.9 1164.7 399.4 1162.8 389.3C1162 385.2 1161 381.2 1160.9 377L1160.8 381.5C1160.9 383.4 1160.8 385.2 1160.7 387.1C1160.5 391.7 1159.6 396.3 1157.4 400.4C1155 405.1 1149.3 410.5 1147 412.3C1151.2 410.2 1156.2 408.2 1157.4 403.9C1156.1 407.8 1155.1 412.9 1151.7 417.5C1154.1 416 1156.3 414.2 1158.2 412C1158.2 412 1158.2 411.9 1158.3 411.9C1156.1 427.1 1145.5 436.8 1140.7 440.5C1146.9 439.2 1151.4 437.1 1155.5 433.2C1154.2 439.7 1152.2 446.1 1149.4 451.9C1149 452.9 1148.4 454 1147.9 455.1C1142.2 450 1137.7 443.2 1134 436.9C1132.6 434.7 1131.4 432.5 1130.2 430.2C1132 431.1 1133.9 431.8 1135.7 432.2C1133.6 430.6 1131.2 428.3 1130.6 426C1132.9 429.3 1138.8 429.7 1143 429.5C1137.5 427.8 1130.4 424 1127.1 420.1C1124.3 416.8 1123.7 412.1 1122.2 408.5V408.9C1122.5 412 1121.9 415.4 1120.9 418.3C1118.7 423.9 1114.7 427.4 1109.4 431C1108.9 431.4 1108.2 431.5 1107.7 431.9C1111.7 432.1 1115.4 431.2 1117.6 428.2C1116 431.1 1115.8 432.9 1112.4 435.2C1115.2 434.9 1117.4 433.6 1119 432C1118.4 436.5 1116.8 441.1 1114.5 445.3C1109.4 441.9 1102 432.6 1096.5 425.4C1094.7 422.7 1093.1 419.7 1092.3 418.4C1095.1 421 1098.9 423.2 1103.8 423C1100.7 422 1088.3 412 1086.3 402.5C1085.5 398.6 1084.4 394.8 1084.3 390.8L1084.2 395.1C1084.3 396.9 1084.2 398.6 1084.1 400.4C1083.9 404.8 1082.9 409.1 1080.7 413C1078.1 417.5 1072.2 422.6 1069.8 424.2C1074.2 422.2 1079.5 420.3 1080.7 416.2C1079.3 419.9 1078.2 424.8 1074.8 429.2C1077.4 427.8 1079.7 426.1 1081.6 424C1081.6 424 1081.6 423.9 1081.7 423.9C1080.5 431.7 1076.7 437.9 1072.7 442.6C1071.1 439.8 1069.9 436.8 1068.6 433.8C1070.9 435.4 1073.5 436.7 1076 437C1075.3 436.4 1074.4 435.7 1073.7 435.1C1068.1 430.3 1063.6 423.8 1062.2 417.1C1063.5 418.2 1065.1 419 1067.2 419.1C1064.5 417.6 1064.2 416.3 1062.9 414.3C1064.7 416.4 1067.5 416.9 1070.4 416.5C1070 416.2 1069.5 416.2 1069.1 415.9C1064.9 413.6 1061.8 411.2 1059.8 407.2C1058.9 405.1 1058.3 402.7 1058.3 400.4V400.1C1057.4 402.8 1057.2 406.4 1055.3 408.9C1053.1 412 1048.1 415.2 1044.1 416.8C1047.3 416.7 1051.5 416.1 1053.1 413.5C1052.8 415.3 1051.2 417.1 1049.7 418.4C1051 418 1052.4 417.3 1053.6 416.6C1052.9 418.3 1052.1 420.1 1051.2 421.8C1049.8 424.6 1048.3 427.6 1046.4 430.4C1039.2 425.5 1030 415.4 1023 407.5C1020.6 404.3 1018.4 400.8 1017.3 399.1C1021.3 402.3 1026.9 405.1 1034.4 405.3C1029.8 403.9 1011.8 391.5 1009.9 380.5C1009.1 376 1007.8 371.6 1008.1 367L1007.4 371.9C1007.3 373.9 1007 375.9 1006.6 377.9C1005.7 382.9 1003.8 387.7 999.9 392C995.5 396.9 985.8 402.2 981.9 403.9C988.8 402 997.2 400.2 999.6 395.7C997.1 399.9 994.9 405.3 989 410C993.1 408.6 996.8 406.8 1000 404.6L1000.1 404.5C994.9 420.8 976.9 430.3 968.8 433.8C978.9 432.9 986.4 431 993.4 427.2C990.6 434.1 986.7 440.9 981.6 446.9C981.2 447.4 980.7 448 980.2 448.6C979.5 448 978.7 447.4 978.1 446.9C969.7 439.8 963 430.3 960.9 420.4C962.8 422 965.3 423.2 968.4 423.3C964.4 421.1 964 419.3 962 416.2C964.7 419.3 968.8 420 973.2 419.4C972.6 419 971.8 418.9 971.2 418.5C965 415.1 960.3 411.6 957.4 405.7C956 402.6 955.1 399.1 955.1 395.6V395.1C953.7 399.2 953.4 404.3 950.7 408.1C947.4 412.6 939.9 417.4 934 419.8C938.7 419.7 945.1 418.7 947.4 414.9C946.9 417.5 944.5 420.2 942.4 422.2C944.3 421.5 946.4 420.6 948.3 419.5C947.3 422.1 946.1 424.6 944.7 427.1C940.9 434.7 936.3 443 930 449.2C929.2 448 928.5 446.7 927.8 445.2C927.5 444.6 927.3 444 927 443.4C928.5 444.1 930.3 444.4 932.6 444.3C929.7 442.8 927.1 441 925 438.4C925 438.3 924.9 438.3 924.9 438.2C924.8 437.9 924.7 437.5 924.6 437.2C926.9 439.4 930.9 442.1 933.5 440.7C930.3 439.8 924.2 430.3 920 423.3C918.8 421.1 917.7 418.6 917.2 417.5C919 419.7 921.6 421.5 924.8 421.3C922.7 420.5 914.5 412.2 913.2 404.3C912.7 401.1 911.9 397.9 911.9 394.6L911.8 398.2C911.8 399.7 911.8 401.1 911.7 402.6C911.5 406.2 910.9 409.8 909.4 413C907.7 416.7 903.8 420.9 902.2 422.3C905.1 420.6 908.6 419 909.4 415.7C908.5 418.8 907.8 422.8 905.5 426.4C907.2 425.3 908.7 423.8 910 422.1C910 422.1 910 422.1 910 422C908.9 430.5 904.9 436.8 901.4 440.8C891.9 432.5 884.4 421.4 882 409.9C884.2 411.8 887.2 413.2 890.9 413.4C886.2 410.8 885.7 408.6 883.4 404.9C886.6 408.6 891.5 409.4 896.7 408.7C896 408.3 895.1 408.1 894.4 407.7C887.1 403.6 881.5 399.5 878.1 392.4C876.5 388.7 875.4 384.5 875.4 380.4V379.8C873.8 384.6 873.4 390.8 870.2 395.3C866.3 400.7 857.5 406.5 850.5 409.2C856.1 409.1 863.6 407.9 866.3 403.3C865.8 406.4 862.9 409.6 860.4 412C862.7 411.2 865.1 410.1 867.3 408.8C866.1 411.9 864.7 414.9 863.1 417.9C859.8 424.7 855.9 432 851 438.3C845.8 433.8 839.3 425.5 834.3 419C832.4 416.1 830.6 412.9 829.8 411.5C832.8 414.3 836.8 416.6 842.1 416.5C838.8 415.4 825.5 404.7 823.4 394.6C822.5 390.4 821.4 386.4 821.2 382.1L821 386.7C821.1 388.6 821 390.5 820.9 392.4C820.6 397.1 819.6 401.7 817.2 405.9C814.5 410.7 808.2 416.2 805.5 417.9C810.2 415.7 815.8 413.7 817.2 409.4C815.8 413.4 814.6 418.6 810.9 423.2C813.6 421.7 816.1 419.9 818.1 417.6L818.2 417.5C816.7 427 811.5 434.4 806.6 439.6C802.5 436.1 797.6 430.5 796.5 425.1C795.8 421.7 794.8 418.3 794.7 414.8L794.6 418.6C794.6 420.2 794.6 421.7 794.5 423.3C794.3 427.2 793.4 431 791.5 434.4C790.7 435.8 789.4 437.4 788.1 438.8C784.1 435 780.1 429.6 778.4 422.6C778.4 422.6 778.4 422.6 778.5 422.7C780.3 424.4 782.4 425.8 784.7 426.8C781.4 423.3 780.2 419.2 778.8 416C780.1 419.4 784.8 420.7 788.7 422.2C786.5 420.9 781.1 416.9 778.6 413.2C776.4 410 775.3 406.3 774.9 402.6C774.7 401.1 774.5 399.6 774.5 398L774.1 394.3C774.2 397.8 773.5 401.1 773.1 404.5C772 412.8 761.9 422.2 759.3 423.3C763.6 423.1 766.7 421 768.9 418.6C768.3 419.8 767.1 422.5 765.7 424.9C760.8 432.4 753.8 442.6 749.7 444.2C749.3 443.7 749 443.3 748.6 442.8C747.6 441.4 746.7 439.8 746.3 439C747.8 440.4 749.8 441.5 752.4 441.5C750.7 441 744.1 435.6 743.1 430.6C742.7 428.5 742.1 426.5 742 424.4L741.9 426.7C741.9 427.6 741.9 428.6 741.8 429.5C741.7 431.8 741.2 434.1 740 436.2C738.6 438.6 735.5 441.3 734.2 442.2C736.5 441.1 739.3 440.1 740 438C739.3 440 738.7 442.6 736.8 444.9C738.2 444.2 739.4 443.2 740.4 442.1C740 444.6 739.1 446.8 738 448.8C731.8 441.9 727.1 433.7 725.3 425.3C727.4 427.1 730.1 428.4 733.6 428.5C729.2 426 728.7 424 726.5 420.5C729.5 423.9 734.1 424.8 738.9 424.1C738.2 423.7 737.4 423.6 736.7 423.1C729.8 419.2 724.6 415.4 721.4 408.8C719.9 405.4 718.9 401.4 718.9 397.5V396.9C717.4 401.4 717.1 407.2 714 411.5C710.3 416.6 702.1 422 695.5 424.6C700.7 424.5 707.8 423.4 710.3 419.1C709.8 422 707.1 425 704.8 427.2C706.9 426.5 709.2 425.4 711.3 424.2C710.1 427.1 708.8 429.9 707.4 432.7C703.8 440 699.5 447.9 693.9 454.4C689.9 450.6 686.8 446.2 684.7 440.7C684.4 439.9 684.1 439.1 683.8 438.2C686.1 439.4 688.9 440.3 692.6 440.7C688.2 438.1 684.4 435.1 681.6 431.3C681.6 431.2 681.5 431.1 681.5 431C681.3 430.6 681.2 430.1 681.2 429.6C684.4 432.9 690.3 437.3 694.7 436.3C689.8 434.4 681.9 420.7 676.5 410.8C675 407.7 673.8 404.3 673.2 402.7C675.7 405.9 679.4 408.8 684.6 409.4C681.5 407.8 669.9 395.3 669.4 384.9C669.2 380.6 668.6 376.5 669.1 372.2L668.3 376.7C668.1 378.6 667.8 380.4 667.3 382.3C666.3 386.9 664.6 391.3 661.7 395.1C658.3 399.4 651.2 403.9 648.4 405.2C653.3 403.8 659.2 402.6 661.2 398.5C659.2 402.2 657.2 407.2 652.9 411.2C655.8 410.1 658.6 408.7 660.9 406.7L661 406.6C657.5 417.6 649.3 424.8 643 429C641.6 425.6 640.6 422 640 418.4C641.5 420.1 643.5 421.3 646 421.4C642.8 419.1 642.5 417.2 640.9 414C643.1 417.2 646.4 418 649.9 417.3C649.4 416.9 648.8 416.8 648.3 416.4C643.3 412.8 639.5 409.3 637.2 403.1C636.1 399.9 635.4 396.2 635.4 392.6V392.1C634.3 396.3 634.1 401.7 631.9 405.6C630.2 408.6 627.1 411.8 623.8 414.3C616.9 408.1 609.1 398.5 606.2 385.4L606.3 385.5C609 388.2 612.2 390.4 615.6 392.1C610.6 386.4 608.7 379.8 606.6 374.7C608.6 380.2 615.7 382.3 621.6 384.7C618.2 382.7 610 376.1 606.3 370.2C603 365 601.4 359.1 600.6 353.1C600.3 350.7 600 348.2 599.9 345.7L599.3 339.8C599.5 345.4 598.4 350.7 597.8 356.2C596.1 369.6 580.9 384.7 576.9 386.5C583.3 386.2 588.1 382.8 591.5 378.9C590.6 380.9 588.8 385.2 586.7 389.1C579.1 401.5 568.2 418.4 562.1 420.4C567.4 422.2 575 417.1 579.2 413.1C579.1 413.7 578.9 414.4 578.7 414.9C578.7 415 578.6 415.1 578.6 415.2C574.8 419.8 570 423.3 564.3 426.3C568.9 426.1 572.4 425.3 575.3 423.9C574.9 425 574.4 426 573.9 427C571.9 431.5 569.4 435.4 566.4 438.8C560.5 430.6 556 420.6 554.4 410.4C556.2 412.4 558.6 414 561.6 414.1C557.8 411.3 557.4 408.9 555.5 405C558.1 408.9 562 409.9 566.3 409.1C565.7 408.6 565 408.5 564.4 408C558.4 403.6 553.9 399.2 551.2 391.6C549.9 387.7 549 383.1 549 378.7V378.1C547.7 383.3 547.4 389.9 544.8 394.8C541.6 400.6 534.5 406.8 528.8 409.8C533.3 409.6 539.4 408.4 541.6 403.5C541.2 406.8 538.8 410.3 536.8 412.8C538.6 412 540.6 410.8 542.4 409.3C541.4 412.6 540.2 415.9 539 419.1C535.3 429 530.9 439.8 524.6 447.8C522.8 444.9 521.3 441.7 520.1 438.1C519.8 437.1 519.5 436.1 519.1 435.1C521.5 436.6 524.4 437.6 528.2 438.1C523.6 435 519.7 431.5 516.8 426.9C516.8 426.8 516.7 426.7 516.7 426.6C516.5 426.1 516.4 425.5 516.4 424.9C519.8 428.8 525.8 434.1 530.4 432.8C525.3 430.5 517.2 414.3 511.5 402.4C510 398.7 508.7 394.6 508.1 392.7C510.7 396.5 514.5 400 519.9 400.7C516.7 398.8 504.7 383.9 504.1 371.6C503.9 366.5 503.3 361.6 503.8 356.5L502.9 361.9C502.7 364.1 502.3 366.4 501.9 368.6C500.9 374.1 499.1 379.3 496.1 383.8C492.6 388.9 485.2 394.3 482.3 395.9C487.4 394.2 493.5 392.8 495.6 387.9C493.5 392.4 491.5 398.2 487 403.1C490 401.9 492.9 400.1 495.3 397.8L495.4 397.7C491.8 410.7 483.4 419.3 476.8 424.3C473.5 422.7 461.6 411.2 460.5 401.2C460 397 459.2 393 459.5 388.7L458.9 393.2C458.8 395.1 458.6 396.9 458.3 398.8C457.6 403.4 456.2 407.8 453.5 411.7C450.4 416.1 443.7 421 441 422.5C445.8 420.8 451.5 419.3 453.2 415.1C451.4 418.9 449.8 423.9 445.8 428.1C448.6 426.9 451.2 425.3 453.4 423.2L453.5 423.1C449.7 438 437.2 446.7 431.6 449.8C438.5 449.1 443.7 447.4 448.6 444C446.6 450.3 443.8 456.5 440.2 462.1C439.5 463.2 438.7 464.5 437.8 465.8C432.7 459 429 450.2 426 442.1C424.9 439.4 423.9 436.6 423 433.7C424.6 435 426.3 436 428 436.7C426.2 434.5 424.2 431.6 423.8 428.7C425.7 432.9 431.1 434 435.1 434.2C430.1 431.6 423.8 426.3 421 421.3C418.7 417.1 418.5 411.5 417.4 407V407.5C417.4 411.3 416.6 415.2 415.4 418.5C412.9 425 408.9 428.7 403.5 432.4C403 432.8 402.3 432.9 401.8 433.3C405.5 434 409 433.2 411.4 429.9C409.7 433.3 409.3 435.3 405.9 437.7C408.6 437.6 410.7 436.3 412.3 434.6C410.5 445.4 404.6 455.9 397.5 463.6C396.6 464.5 395.6 465.5 394.7 466.4C390.3 464.1 386.5 461.5 383.6 458C383.6 457.9 383.5 457.8 383.5 457.7C383.3 457.3 383.2 456.8 383.1 456.3C386.5 459.4 392.5 463.3 396.8 462.1C391.9 460.5 383.3 447.6 377.3 438.1C375.7 435.1 374.2 431.8 373.5 430.3C376.2 433.3 380 435.9 385.1 436.2C381.9 434.8 369.8 423.2 368.7 413C368.2 408.8 367.4 404.8 367.7 400.6L367.1 405.1C367 407 366.8 408.8 366.5 410.7C365.8 415.3 364.4 419.7 361.7 423.6C358.6 428 351.9 432.9 349.2 434.4C354 432.7 359.7 431.2 361.4 427C359.6 430.8 358 435.8 354 440C356.8 438.8 359.4 437.2 361.6 435.1L361.7 435C359.1 445.3 352.4 452.6 346.6 457.1C344.2 452.1 342.3 446.8 340.7 441.7C339.8 439.1 339 436.5 338.4 433.8C339.9 435.1 341.6 436.2 343.1 437C341.5 434.9 339.7 432 339.5 429.3C341.1 433.3 346.4 434.8 350.4 435.2C345.6 432.4 339.7 427 337.3 422.2C335.3 418.2 335.5 413 334.7 408.8V409.3C334.4 412.8 333.3 416.3 331.9 419.2C328.9 424.9 324.6 428 319 431C318.5 431.3 317.8 431.4 317.2 431.7C320.9 432.6 324.4 432.2 327 429.3C325.1 432.2 324.5 434.1 321 436C323.7 436.1 325.9 435.1 327.6 433.7C325.7 440.6 321.9 447.2 317 452.8C315.8 450.8 314.6 448.7 313.7 446.3C313.3 445.4 313 444.5 312.6 443.6C314.9 444.8 317.8 445.5 321.5 445.8C316.9 443.2 313 440.2 310 436.2C310 436.1 309.9 436 309.9 435.9C309.7 435.5 309.6 434.9 309.5 434.4C312.9 437.8 319 442.3 323.4 440.9C318.4 439.1 309.7 424.5 303.7 413.9C302.1 410.6 300.6 406.8 299.9 405.1C302.6 408.5 306.4 411.4 311.7 411.8C308.5 410.3 296.2 397.2 295.1 385.7C294.6 381 293.8 376.4 294 371.7L293.4 376.8C293.3 378.9 293.1 381 292.8 383.1C292.1 388.3 290.7 393.3 288 397.6C284.9 402.6 278.1 408.1 275.3 409.7C280.1 407.8 285.9 406.1 287.7 401.4C285.9 405.7 284.3 411.3 280.2 416.1C283.1 414.7 285.7 412.9 287.9 410.6L288 410.5C284.6 425.5 274.2 434.8 267.9 439.2C266.1 435.9 264.4 432.6 262.8 429.4C261.3 426.5 260 423.6 258.8 420.6C260.9 421.9 263.3 423 265.5 423.8C263.1 421.5 260.4 418.4 259.9 415.4C262.5 419.8 269.7 421 275.1 421.2C268.4 418.5 259.9 412.9 256.2 407.6C253.1 403.2 252.8 397.2 251.3 392.5V393.1C251.3 397.1 250.2 401.2 248.6 404.7C245.3 411.5 239.9 415.4 232.7 419.3C232 419.7 231.1 419.9 230.4 420.3C235.4 421 240.1 420.2 243.2 416.7C240.9 420.2 240.4 422.3 235.9 424.9C239.5 424.8 242.3 423.4 244.5 421.6C242 433 234.3 444 224.7 452C224.3 452.3 223.9 452.6 223.5 453C222.2 451.2 221 449.3 220.1 447.1C219.8 446.4 219.4 445.6 219.1 444.9C221.3 445.9 223.9 446.5 227.3 446.7C223.1 444.5 219.5 442.1 216.7 438.7C216.7 438.6 216.6 438.5 216.6 438.5C216.4 438.1 216.3 437.7 216.2 437.2C219.4 440 224.9 443.8 229 442.6C224.4 441.1 216.4 429.1 210.9 420.2C209.4 417.4 208 414.4 207.4 413C209.9 415.8 213.4 418.2 218.2 418.5C215.3 417.2 204 406.4 202.9 396.9C202.4 393 201.7 389.2 201.9 385.3L201.4 389.5C201.3 391.2 201.1 393 200.8 394.7C200.2 399 198.9 403.1 196.4 406.7C193.5 410.8 187.3 415.4 184.7 416.7C189.1 415.1 194.5 413.7 196.1 409.9C194.5 413.4 193 418.1 189.2 422C191.8 420.9 194.2 419.4 196.3 417.5C196.3 417.5 196.3 417.5 196.4 417.4C193.5 429 185 436.4 179.2 440.3C175.2 435 172.6 428.8 169.7 422.9C173.6 425.5 178.1 427.4 182.3 427.7C181.1 426.8 179.6 425.6 178.3 424.7C168.6 417.1 160.6 406.6 157.8 395.5C160 397.2 162.8 398.4 166.3 398.4C161.8 396.1 161.2 394 158.8 390.6C162 393.9 166.6 394.6 171.5 393.7C170.8 393.3 169.9 393.2 169.3 392.8C162.2 389.2 156.7 385.5 153.2 379C151.5 375.6 150.3 371.6 150.2 367.7V367.1C148.9 371.8 148.8 377.6 145.9 382C142.4 387.3 134.3 393.1 127.8 396C133.1 395.6 140.2 394.2 142.5 389.8C142.1 392.7 139.5 395.9 137.2 398.2C139.3 397.4 141.6 396.2 143.6 394.9C142.6 397.9 141.3 400.8 140 403.7C137.2 410.2 133.8 417.1 129.5 423.3C126.4 419.9 123.8 416 121.7 411.5C121.3 410.5 120.8 409.5 120.4 408.5C123.3 409.8 126.7 410.6 131.3 410.9C125.7 408 120.9 404.7 117.2 400.3C117.2 400.2 117.1 400.1 117.1 400C116.9 399.5 116.7 398.9 116.6 398.3C120.8 402.1 128.2 407 133.6 405.4C127.5 403.4 116.9 387.4 109.5 375.7C107.5 372 105.7 368 104.9 366.1C108.2 369.8 112.9 373.1 119.3 373.5C115.4 371.8 100.4 357.4 98.9 344.8C98.3 339.6 97.3 334.6 97.6 329.4L96.9 335C96.8 337.3 96.5 339.6 96.1 341.9C95.3 347.6 93.5 353.1 90.2 357.9C86.4 363.4 78.1 369.4 74.7 371.2C80.6 369.1 87.7 367.2 89.8 362.1C87.6 366.8 85.6 373 80.6 378.2C84.1 376.7 87.3 374.7 90 372.2L90.1 372.1C88.3 379.3 84.8 385.3 80.9 390.2C80.3 389.9 79.7 389.7 79.1 389.3C72.6 384.9 67.7 380.6 65.1 373.7C63.9 370.1 63.2 366.1 63.6 362.2V361.7C61.7 366.1 60.8 371.8 57.5 375.8C53.4 380.5 44.7 385.2 37.9 387.2C43.1 387.5 50.2 387.1 53.1 383C52.3 385.8 49.4 388.6 46.9 390.6C49.1 390.1 51.5 389.2 53.6 388.2C52.2 391 50.6 393.7 48.9 396.3C44.4 403.7 39.1 411.7 32.4 417.8C29.8 413.5 27.7 408.8 26.2 403.6C25.8 402.3 25.5 400.9 25.1 399.6C28.5 401.9 32.8 403.5 38.5 404.7C32 400 26.5 394.9 22.6 388.5C22.6 388.4 22.5 388.2 22.5 388C22.3 387.3 22.2 386.6 22.2 385.8C26.8 391.4 35.3 399.1 42.4 398.1C35 394.4 24.6 372 17.5 355.7C15.7 350.6 14.1 345.1 13.4 342.6C16.9 348 22.2 353 30.3 354.7C25.6 351.8 9.4 330.6 9.9 314.3C10.1 307.6 9.8 301 11.2 294.5L9.3 301.4C8.7 304.3 7.9 307.2 7 310C4.9 317.1 1.6 323.7 -3.6 329.2C-9.5 335.4 -21.2 341.5 -25.9 343.2C-18 341.7 -8.59999 340.6 -4.89999 334.5C-8.59999 340.1 -12.3 347.5 -19.7 353.2C-15 352 -10.5 350 -6.6 347.4C-6.6 347.4 -6.49999 347.3 -6.39999 347.3C-15.9 369.9 -37.7 380.5 -47.2 384.1C-36.1 384.6 -27.6 383.3 -19.1 379C-23.8 388.5 -29.6 397.6 -36.6 405.4C-42.6 412.3 -53.6 425.2 -63.8 425.4C-59.8 425.5 -55.8 425.6 -52 424.1C-47.5 422.4 -38.8 418.7 -36.1 414.6C-39.6 422.4 -49.4 433.8 -60.3 440C-56.1 440.2 -41.1 433 -36.2 430.1C-37.3 432.7 -38.4 435.1 -39.5 437.2C-46.7 449.7 -53.7 458.8 -75.1 467.3C-72.4 467.2 -62.5 466.3 -59.2 465C-64.9 469.5 -72.5 472.8 -85 475.1C-62.8 481.4 -45.7 474.9 -37.6 465.3C-41 472.5 -50.3 485.2 -57.6 489.8C-47.7 488.3 -34.7 478.3 -30.7 471.3C-33.4 478.3 -34.5 485.6 -39.6 491.6C-32.3 487.3 -23.5 481 -19.5 473.4C-20 481.2 -21.8 489.2 -22.7 497C-19.8 494.4 -16.7 491.2 -14.2 487.5V878.1H1336.2V469.9C1337.6 470.7 1339.2 471.2 1340.8 471.4C1339.2 469.6 1337.7 467.7 1336.2 465.8V461.9C1339.4 464.4 1343.3 466.4 1346.7 467.5C1344.4 463.9 1341 460 1340.1 455.4C1344.8 461 1352.3 468 1360.4 466.2C1354.9 461.5 1348.5 457.6 1344.5 451.3C1349.7 456.3 1357.7 460.4 1365.7 459.2ZM392.8 482.1C393.1 482.4 393.5 482.6 393.8 482.9C393.7 483 393.7 483.1 393.6 483.2C393.4 482.8 393.1 482.5 392.8 482.1ZM525.2 456.5C525.4 456.8 525.7 457 525.9 457.3C525.9 457.4 525.8 457.5 525.8 457.6C525.6 457.2 525.4 456.9 525.2 456.5ZM791.7 444.2H791.8C791.2 448 789.8 451.4 788.1 454.4C786 451 784.3 447.4 782.9 443.6C783.9 443.2 784.8 442.7 785.8 442.2C786.8 442.6 787.8 443 788.8 443.4C788.1 445.2 787.1 447 785.7 448.7C788.1 447.5 790.1 446 791.7 444.2ZM854.3 442C853.7 443.2 853.1 444.4 852.4 445.5C851 444.9 849.6 444.2 848.4 443.5C849.5 443 850.6 442.5 851.7 442C852.6 442.1 853.5 442.1 854.3 442ZM128.7 430.5C129.1 430.9 129.6 431.2 130 431.6C129.9 431.7 129.9 431.9 129.8 432C129.4 431.4 129 431 128.7 430.5ZM168.7 480.3L166 479.6C166.1 478.8 166.3 478 166.5 477.3C167.1 478.2 167.9 479.2 168.7 480.3ZM175 473.2C175.1 473.3 175.2 473.3 175.3 473.4C175.2 473.5 175 473.7 174.9 473.8C174.9 473.6 175 473.4 175 473.2ZM183.6 460.1C183.8 459.8 184 459.5 184.1 459.3C184 459.6 183.9 460 183.8 460.4C183.7 460.2 183.7 460.2 183.6 460.1ZM274.8 461.4C274.8 461.4 274.8 461.3 274.8 461.4C274.8 461.2 274.9 461.1 274.9 461C274.9 461.1 274.9 461.3 274.8 461.4ZM227.1 472.4C227 472.5 226.9 472.7 226.9 472.8V472.7C226.9 472.6 227 472.5 227.1 472.4ZM349.7 491.5C349.6 491.1 349.5 490.6 349.3 490.2C349.6 489.9 349.9 489.7 350.2 489.5C350.1 490.2 349.9 490.8 349.7 491.5ZM209.1 492.1C209.2 492.4 209.3 492.6 209.5 492.9H209C209 492.7 209.1 492.4 209.1 492.1ZM691.1 468.7C690.7 467.3 690.4 465.8 690.3 464.5C690.9 465 691.7 465.5 692.6 466.1C692.1 466.9 691.6 467.8 691.1 468.7ZM477.5 452.9C477.7 453 478 453.1 478.2 453.2C478.1 453.5 477.9 453.8 477.8 454.1C477.6 453.7 477.5 453.4 477.3 453C477.4 453 477.5 452.9 477.5 452.9ZM493.5 494.1H493.4C493.4 494 493.5 493.9 493.5 493.8C493.5 494 493.5 494.1 493.5 494.1ZM564.7 447.3C564.7 447.2 564.7 447.2 564.6 447.1C564.8 447 564.9 446.8 565.1 446.7C565 446.9 564.8 447.1 564.7 447.3ZM394 492C393.9 491.5 393.8 490.9 393.7 490.4C394 490.6 394.3 490.8 394.6 491C394.5 491.3 394.2 491.6 394 492ZM786 467.1C786.4 467.4 786.9 467.8 787.5 468.3C787.3 468.9 787.1 469.6 786.8 470.2C786.6 469.2 786.3 468.2 786 467.1ZM789 463.4C788.8 463.1 788.7 462.8 788.6 462.5C788.9 462.3 789.2 462.1 789.4 461.8C789.2 462.3 789.1 462.8 789 463.4ZM849.3 450.6C849.2 450.8 849.1 450.9 848.9 451.1C848 449.9 847.2 448.7 846.5 447.4C846.1 446.6 845.6 445.9 845.2 445.1C847.1 445.8 849.3 446.2 852 446.3C851.2 447.8 850.3 449.3 849.3 450.6ZM753.5 453.6C753 453.2 752.6 452.9 752.1 452.4C752.1 452.4 752.1 452.3 752 452.3C751.9 452.1 751.8 451.9 751.7 451.6C752.3 452 753 452.5 753.8 453C753.8 453.2 753.6 453.4 753.5 453.6ZM902.1 465.8C901.9 466.2 901.7 466.7 901.5 467.1C900.8 466.1 900.2 465.1 899.6 464.1C899.7 464 899.8 463.9 899.9 463.8C900.6 464.5 901.3 465.2 902.1 465.8ZM905.7 468C905.6 468.3 905.6 468.7 905.5 469C905.3 469.9 905.1 470.7 904.9 471.6C904.1 470.7 903.4 469.8 902.7 468.9C903.3 468.4 903.8 467.8 904.3 467.3C904.8 467.5 905.2 467.8 905.7 468ZM1074.7 480.7C1073.9 480.3 1073.1 479.8 1072.3 479.2C1073.7 478.1 1074.9 477 1075.6 476.3C1075.4 477.9 1075.1 479.4 1074.7 480.7ZM1064.9 469.3C1064.9 469.3 1064.9 469.2 1064.8 469.2C1064.8 469.2 1064.8 469.2 1064.8 469.1C1064.8 469 1064.8 468.9 1064.9 468.7C1065.6 469.2 1066.5 469.7 1067.4 470.1C1067.2 470.3 1067.1 470.6 1066.9 470.8C1066.2 470.4 1065.5 469.9 1064.9 469.3ZM1071.6 484.3C1071.7 484.3 1071.8 484.4 1071.9 484.5H1071.6C1071.6 484.4 1071.6 484.4 1071.6 484.3ZM1067.3 473.9C1067.7 473.6 1068.2 473.2 1068.7 472.8C1069.3 472.9 1070 472.9 1070.8 472.9C1070.3 472.7 1069.9 472.5 1069.4 472.3C1069.7 472.1 1069.9 471.8 1070.2 471.6C1070.7 471.9 1071.1 472.2 1071.6 472.3C1071.5 471.7 1071.3 471.2 1071.2 470.7C1071.3 470.7 1071.4 470.7 1071.5 470.6C1071.4 470.6 1071.3 470.5 1071.2 470.5C1072.3 469.4 1073.1 468.3 1073.5 467.3C1073 470 1071.6 473.4 1069.6 476.9C1068.8 476 1068 475 1067.3 473.9ZM1070.4 465C1070.5 464.7 1070.5 464.4 1070.6 464.1C1070.7 464.2 1070.7 464.2 1070.8 464.3C1070.7 464.5 1070.5 464.7 1070.4 465ZM1051.8 469.7C1051.8 469.9 1051.7 470 1051.7 470.2C1051.7 470.1 1051.6 470.1 1051.6 470C1051.7 469.9 1051.7 469.8 1051.8 469.7ZM1070.8 480.4C1070.9 480.4 1070.9 480.4 1070.8 480.4C1072 481.1 1073.1 481.9 1074.2 482.3C1074.1 482.6 1074 482.9 1073.9 483.2C1072.8 482.4 1071.8 481.5 1070.8 480.4ZM1111.3 457C1111.1 456.8 1110.9 456.5 1110.7 456.3C1111.1 456 1111.4 455.7 1111.8 455.4C1111.6 455.9 1111.4 456.5 1111.3 457ZM1291.9 424.6C1291.8 424.4 1291.7 424.2 1291.6 424C1291.7 424 1291.9 424.1 1292 424.1C1292 424.3 1292 424.4 1291.9 424.6ZM1232.1 407.7C1230.2 405.4 1228.2 402.9 1226.4 400.6C1230 399.2 1233.6 397 1236.7 394.3C1235.1 398.8 1233.8 403.3 1232.1 407.7ZM1200.9 432.3C1199.6 429.9 1198.3 427.6 1197.2 425.2C1196.9 424.7 1196.7 424.1 1196.4 423.6C1199.4 422.5 1202 421 1204.5 419C1204.7 419 1205 419 1205.2 419C1204.2 423.6 1202.8 428.1 1200.9 432.3ZM1195 420.7C1194.7 420.1 1194.5 419.5 1194.2 418.9C1194.7 419.2 1195.3 419.5 1195.9 419.8C1195.6 420.1 1195.3 420.4 1195 420.7ZM1150.5 476.6C1150.4 476.5 1150.3 476.3 1150.3 476.2C1150.4 476.2 1150.5 476.3 1150.6 476.3C1150.5 476.3 1150.5 476.5 1150.5 476.6ZM1108.8 453.5C1108.5 453.1 1108.2 452.6 1108 452.2C1107.6 451.5 1107.2 450.8 1106.8 450C1108 450.4 1109.3 450.7 1110.8 450.9C1110.2 451.8 1109.5 452.7 1108.8 453.5ZM1075.7 453.4C1074.2 451.9 1072.9 450.1 1071.9 448.5C1072 448.4 1072.1 448.4 1072.2 448.3C1073.3 449.3 1074.7 450.2 1076.5 450.9C1076.3 451.7 1076 452.6 1075.7 453.4ZM1045.4 436.7C1044.8 436.5 1044.2 436.2 1043.6 435.9C1044.6 435.4 1045.6 434.9 1046.6 434.4C1046.2 435.1 1045.8 435.9 1045.4 436.7ZM1044.8 437.8C1044.3 438.7 1043.8 439.6 1043.2 440.4C1042.6 441.3 1042 442.3 1041.4 443.4C1040.1 441.9 1038.9 440.4 1037.9 438.7C1037.4 437.9 1036.8 437 1036.3 436.1C1038.6 437 1041.4 437.5 1044.8 437.8ZM984.1 467.3C983.4 466.7 982.7 466.1 982 465.5C983.4 464.7 984.6 464 985.5 463.5C985 464.8 984.6 466.1 984.1 467.3ZM982.8 469.9C982.2 471 981.6 472 981 473.1C979.5 471.5 978.2 469.8 977 468.1C977.4 467.9 977.8 467.7 978.1 467.5C979.5 468.5 981.1 469.3 982.8 469.9ZM975.1 464.9C975 464.7 974.9 464.6 974.8 464.4C974.8 464.4 974.8 464.4 974.8 464.3C974.9 464.5 975 464.7 975.1 464.9ZM904.1 460.5C903.9 460.3 903.8 460.1 903.6 459.9C904.1 459.2 904.5 458.5 904.7 457.8C904.6 458.6 904.4 459.5 904.1 460.5ZM898.9 463C898.8 462.8 898.7 462.6 898.6 462.5C898.6 462.5 898.6 462.5 898.6 462.4C898.7 462.6 898.9 462.7 899 462.9C898.9 462.9 898.9 463 898.9 463ZM782.9 443.2C782.5 442.1 782.1 440.9 781.8 439.7C782.8 440.4 783.8 441 784.8 441.6C784.1 442.3 783.5 442.8 782.9 443.2ZM756.7 448.4C756.2 449.4 755.7 450.3 755.2 451.2C754.2 450.2 753.2 449.1 752.2 447.8C754.4 447.6 756.1 447.1 757.6 446.5C757.3 447.1 757 447.8 756.7 448.4ZM738.2 454.3C738 455.1 737.7 456 737.4 456.8C737 455.9 736.7 455.1 736.3 454.2C736.6 454 736.9 453.9 737.2 453.7C737.5 453.9 737.8 454.1 738.2 454.3ZM695 462.4C693.5 460.9 692.1 459.3 690.9 457.6C691.1 457.5 691.2 457.5 691.4 457.4C692.9 458.7 694.4 460 695.9 461C695.6 461.5 695.3 461.9 695 462.4ZM628.9 419C628.6 418.8 628.4 418.6 628.1 418.4C628.5 418.1 628.9 417.8 629.3 417.5C629.2 418 629 418.5 628.9 419ZM620.7 446.3C620.6 446.5 620.5 446.8 620.4 447C620.2 446.5 620.1 446 619.9 445.6C620 445.6 620 445.5 620.1 445.5C620.4 445.8 620.5 446 620.7 446.3ZM475.9 447.5C475.5 447.1 475.1 446.6 474.7 446.1C474.7 446 474.6 445.9 474.6 445.8C474.4 445.4 474.3 444.9 474.2 444.4C474.9 445 475.7 445.7 476.6 446.4C476.3 446.8 476.1 447.1 475.9 447.5ZM440.7 482.1C440.5 482.6 440.3 483.1 440.1 483.5C439.5 482.4 438.9 481.2 438.4 480.1C439.9 479 441.3 478.1 442.1 477.4C441.6 479.1 441.2 480.7 440.7 482.1ZM397.7 485.8C397.5 486.2 397.3 486.6 397 487C396.7 486.7 396.5 486.5 396.2 486.2C396.5 485.9 396.8 485.7 397 485.4C397.3 485.5 397.5 485.6 397.7 485.8ZM273.7 454.7C273.3 455.5 272.8 456.3 272.2 457.3C271.1 455.3 270 453.2 268.9 451C270.6 452 272.3 452.9 274.2 453.8C274.1 454.1 273.9 454.4 273.7 454.7ZM226.5 463.2C226 462.6 225.5 462 225.1 461.3C225.7 461.8 226.2 462.2 226.8 462.7C226.7 462.9 226.6 463 226.5 463.2ZM132.1 427.2C131.8 426.9 131.5 426.7 131.2 426.4C131.8 426 132.4 425.7 132.9 425.3C132.7 426 132.4 426.6 132.1 427.2ZM76.5 414.4C74.2 411.2 72.1 407.7 70.5 404.2C75.2 403 79.2 401.2 83.2 398.4C81.4 403.9 79.2 409.3 76.5 414.4ZM159.2 476.1C159.4 476.7 159.5 477.3 159.7 477.9L159.2 477.8C159.2 477.2 159.3 476.6 159.2 476.1ZM175.8 482.4C174.8 479.1 174.4 477.4 174.6 475.2C175.1 474.9 175.7 474.6 176.3 474.3C177.8 475.4 179.7 476.6 181.7 477.8C180.7 479.7 179.6 481.6 178.1 483.3L175.8 482.4ZM1297.6 397.8C1296.5 402.9 1294.9 407.9 1292.8 412.6C1290.5 409.5 1288.4 406.4 1286.5 403.8C1290.7 402.5 1294.3 400.6 1297.6 397.8ZM1229.2 395.5C1228.5 396.2 1227.8 397 1227.1 397.7C1226.6 398.2 1226 398.8 1225.4 399.3C1225.1 399 1224.9 398.6 1224.6 398.3C1222.7 395.4 1220.9 392.2 1220.1 390.7C1222.4 393 1225.4 394.9 1229.2 395.5ZM1205.4 418.4C1205.4 418.5 1205.3 418.7 1205.3 418.8C1205.2 418.8 1205.1 418.7 1205 418.7C1205.1 418.6 1205.3 418.5 1205.4 418.4ZM1198.1 417.6C1197.7 418 1197.4 418.4 1197 418.8C1196 417.6 1195.3 416.3 1195 415C1195.6 416.1 1196.7 417 1198.1 417.6ZM1183.7 419.6C1183.2 421.9 1182.5 424.1 1181.5 426.3C1180.4 424.9 1179.3 423.5 1178.2 422C1180.5 421.7 1182.3 420.8 1183.7 419.6ZM1182.8 416C1181.2 418.4 1180.8 420 1178 421.7C1177.3 420.8 1176.6 419.8 1175.9 418.9C1178.7 418.8 1181.1 418 1182.8 416ZM1152.7 467.1C1152.6 468 1152.4 468.9 1152.2 469.8C1151.9 469.4 1151.5 469 1151.2 468.5C1151.9 468 1152.4 467.5 1152.7 467.1ZM1150.7 457.6C1150.4 459.6 1149.6 462 1148.5 464.6C1148 463.9 1147.5 463.2 1147 462.5C1148.7 461 1150.2 459.2 1150.7 457.6ZM1147.3 456.1C1146.6 457.4 1145.9 458.8 1145.1 460.2C1143.5 458.1 1142.1 455.9 1140.7 453.6C1142.8 454.5 1145.1 455.3 1147.3 456.1ZM1113.3 447.1C1112.8 447.9 1112.3 448.7 1111.8 449.5C1108.8 448 1106.1 446.2 1103.8 444C1103.8 443.9 1103.7 443.8 1103.7 443.8C1103.5 443.4 1103.3 443 1103.2 442.5C1105.8 444.4 1109.8 446.7 1113.3 447.1ZM1078.3 444.4C1078 445.9 1077.6 447.4 1077.2 448.9C1076.4 448.3 1075.7 447.6 1075 446.8C1076.1 446.1 1077.2 445.3 1078.3 444.4ZM1044.3 433C1043.7 433.8 1043.1 434.6 1042.4 435.4C1038.6 433.6 1035.2 431.6 1032.3 429.1C1032.3 429 1032.2 428.9 1032.2 428.8C1031.9 428.4 1031.7 427.9 1031.6 427.3C1034.8 429.4 1039.6 431.9 1044.3 433ZM983.2 453.1C982.4 455.4 980.6 458.3 978.3 461.2C977.6 460.3 977 459.3 976.4 458.3C979.3 456.7 982.1 454.9 983.2 453.1ZM979.3 449.4C977.9 451.1 976.3 452.9 974.5 454.7C972.9 451.5 971.6 448.2 970.2 445C973 447.1 976.2 448.7 979.3 449.4ZM938.2 445.6C936.7 448.5 935.3 451.3 933.5 453.9C932.2 452.6 931 451.2 929.9 449.6C932.7 448.4 935.6 447.1 938.2 445.6ZM899.3 443C898.7 443.6 898.1 444.1 897.6 444.6C898.7 444.3 899.8 444 900.7 443.6C902.5 444.3 904.4 444.8 906.1 445C905.2 444.2 904.1 443.3 903 442.5C904.7 441.6 906.3 440.4 907.8 438.8C906.9 443.9 905.5 448.9 903.6 453.5C903.1 454.6 902.5 456.1 901.9 457.6C898.2 452 895.8 445.6 893.1 439.4C895.1 440.8 897.2 442 899.3 443ZM855.4 440C855.2 440.4 855 440.9 854.7 441.3C854.4 441.2 854.1 441 853.8 440.9C854.4 440.6 854.9 440.3 855.4 440ZM848.5 441.1C848 441.6 847.6 442.1 847.1 442.7C845.3 441.5 843.6 440.2 842.1 438.7C842.1 438.6 842 438.5 842 438.4C841.8 438 841.6 437.5 841.5 437.1C843.3 438.5 845.8 440 848.5 441.1ZM814.8 439.1C813.8 443.6 812.4 448.1 810.6 452.4C808.7 450 806.8 447.6 805.1 445.4C805 445.2 804.9 445 804.7 444.8C806.2 444.3 807.5 443.7 808.8 443.1C809.7 443.2 810.5 443.3 811.5 443.3C811.1 443.2 810.6 442.9 809.9 442.5C811.7 441.5 813.2 440.4 814.8 439.1ZM804.4 441.4C804 441.8 803.6 442.1 803.3 442.4C802.5 441 801.8 439.8 801.4 439.1C802.3 440 803.3 440.8 804.4 441.4ZM791.1 437.3C790.7 438.4 790.3 439.6 789.9 440.8C789.6 440.6 789.4 440.4 789.1 440.1C790 439.3 790.7 438.4 791.1 437.3ZM760.2 439.7C760.1 440.1 760 440.5 759.8 440.8C759.8 440.9 759.7 440.9 759.7 441C757.5 443.5 754.8 445.5 751.6 447.2C750.8 446.3 750 445.3 749.3 444.3C752.8 445.1 757.5 442.1 760.2 439.7ZM700.2 453.2C699.4 454.8 698.6 456.3 697.8 457.8C696.9 457.1 696.1 456.5 695.3 455.8C696.9 454.9 698.6 454.1 700.2 453.2ZM691 457.1C690.9 457.2 690.8 457.3 690.7 457.4C690.4 457 690.1 456.6 689.9 456.1C690.3 456.4 690.7 456.7 691 457.1ZM654.3 427.5C652.7 431.7 650.7 435.9 648.3 439.7C646.5 437.1 645 434.4 643.6 431.5C647.5 430.9 650.9 429.6 654.3 427.5ZM628.6 412.8C628.4 414.3 627.6 415.9 626.7 417.4C626.2 417 625.7 416.6 625.2 416.2C626.7 415.5 627.9 414.4 628.6 412.8ZM619 417.9C620.9 418.7 622.8 419.4 624.9 419.9C624.8 420.1 624.7 420.2 624.5 420.4C624.8 420.3 625 420.2 625.3 420C626.2 420.2 627.2 420.5 628.2 420.6C627.6 422.2 627 423.8 626.4 425.4C624.9 429.3 623.2 433.4 621.3 437.3C621.3 437.3 621.3 437.2 621.2 437.2C616.9 429.8 613.5 421.6 611.2 413.2C613.5 415 615.9 416.4 618.4 417.6C618.2 417.7 618 417.8 617.8 417.9C618.3 417.9 618.6 417.9 619 417.9ZM532.4 442.7C531 446.3 529.6 450 527.9 453.2C526.5 451.6 525.2 449.8 524 447.9C526.9 446.4 529.8 444.7 532.4 442.7ZM476.1 424.4C473.7 426.2 471.6 427.5 470 428.4C477.3 428 482.8 426.5 488.2 422.6C485.9 429.5 482.9 436.1 479.2 442.2C475.5 437.4 471.5 431.4 468.3 426.3C466.7 423.3 465.2 420 464.5 418.5C467.3 421.5 471 424 476.1 424.4ZM440.7 467.8C440 470.2 438.6 473.2 436.6 476.2C436.1 475.1 435.6 474 435.1 473.1C437.4 471.5 439.8 469.6 440.7 467.8ZM433.8 470.4C432.6 467.9 431.5 465.2 430.4 462.4C432.4 463.9 434.6 465.2 436.7 466.4C435.8 467.7 434.8 469.1 433.8 470.4ZM393.9 466.7C393.8 466.7 393.8 466.8 393.9 466.7C393.9 466.8 394 466.7 394.2 466.7C394.2 466.7 394.2 466.7 394.3 466.7C397.4 466.1 400.6 464.2 403.3 461.7C401.1 467.9 399.2 474.3 396 479.8C392 476.4 388.8 472.3 386.5 467.2C386.1 466.4 385.8 465.6 385.4 464.8C387.6 465.9 390.3 466.5 393.9 466.7ZM356 456.2C354.1 462.1 351.6 467.8 348.3 473.1C347.9 472.1 347.5 471.2 347.1 470.4C345.7 467.6 344.7 464.5 343.6 461.4C343.7 461.4 343.8 461.4 343.8 461.3C346 463.1 348.4 464.6 350.7 465.9C349.4 464.2 348.2 462.3 347.2 460.4C350.5 459.5 353.3 458.1 356 456.2ZM282.2 434.4C280.5 440.4 278.2 446.3 275.3 451.8C272.4 448.3 269.9 444.5 267.6 440.6C273.4 439.6 277.9 437.8 282.2 434.4ZM232.5 450.2C231.1 453.3 229.8 456.5 228.4 459.5C226.6 458 225.1 456.4 223.6 454.7C226.7 453.7 229.8 452.1 232.5 450.2ZM190.8 437.2C189.6 441 188.1 444.8 186.2 448.4C183.4 446.6 181.1 444.4 179.2 442.1C183.7 441.2 187.3 439.7 190.8 437.2ZM184.8 451C184.2 452 183.6 453 183 454C182.8 454.2 182.7 454.5 182.5 454.8C179.3 451.7 176.5 447.8 174.7 444.9C177 447.4 180.3 449.8 184.8 451ZM68.2 386.2C70.8 389.8 75 391 79.8 390.9C76.4 395.1 72.6 398.5 69.1 401C67.8 397.6 67 394.2 66.6 390.8C68.5 392.8 71.2 394.3 74.6 394.8C70.4 391.9 70.1 389.8 68.2 386.2ZM39.4 416.5C38 418.8 36.6 421 35 423.1C34 421.8 33.1 420.6 32.3 419.2C34.7 418.5 37.2 417.6 39.4 416.5Z"
                fill="#C8DEDA" />
        </g>
    </g>
    <defs>
        <clipPath id="clip0_800_5310">
            <rect width="1280" height="832" fill="white" />
        </clipPath>
    </defs>
</svg>